<svg width="711" height="530" viewBox="0 0 711 530" fill="none" xmlns="http://www.w3.org/2000/svg">
<g clip-path="url(#clip0_30_238)">
<path d="M65.6142 529.172L65.5811 529.382C65.5417 529.178 65.5038 528.969 65.4678 528.762C65.4021 528.429 65.345 528.095 65.2912 527.759C63.1562 514.642 64.3311 501.214 68.714 488.639C69.5565 486.184 70.516 483.775 71.5926 481.411C75.7099 472.254 81.5467 463.93 88.8016 456.869C91.1572 454.516 93.8449 452.504 96.7832 450.892C97.2146 450.669 97.6484 450.457 98.0918 450.262C100.809 448.976 103.869 448.543 106.849 449.024C107.931 449.223 108.981 449.566 109.967 450.046C110.312 450.21 110.645 450.39 110.972 450.582C112.964 451.857 114.664 453.519 115.968 455.465C117.271 457.411 118.148 459.599 118.545 461.891C119.111 465.311 118.981 468.805 118.164 472.176C118.094 472.498 118.018 472.818 117.938 473.138C117.358 475.384 116.63 477.592 115.758 479.746C107.026 501.672 88.2622 521.126 65.6142 529.172Z" fill="#F2F2F2"/>
<path d="M109.908 450.116C103.095 459.671 96.6595 469.469 90.6008 479.508C84.5494 489.54 78.8938 499.786 73.6339 510.246C70.6914 516.099 67.8776 522.01 65.1924 527.981C64.8951 528.642 65.898 529.217 66.1991 528.548C70.9946 517.889 76.1986 507.417 81.8112 497.133C87.4204 486.86 93.4235 476.804 99.8205 466.966C103.4 461.462 107.098 456.034 110.915 450.682C111.342 450.084 110.334 449.519 109.908 450.116Z" fill="white"/>
<path d="M117.198 472.233C112.079 478.727 104.543 482.99 96.2244 484.097C93.9037 484.406 91.5542 484.451 89.2228 484.232C88.4769 484.164 88.4716 485.298 89.2111 485.366C97.8873 486.079 106.501 483.422 113.183 477.973C115.057 476.445 116.742 474.708 118.205 472.8C118.653 472.218 117.643 471.655 117.198 472.233Z" fill="white"/>
<path d="M73.4713 507.459C72.281 505.805 71.292 504.02 70.5243 502.142C68.7705 497.86 68.1479 493.217 68.7139 488.639C69.5564 486.184 70.5159 483.775 71.5925 481.41C71.6577 481.503 71.697 481.611 71.7064 481.724C71.7158 481.836 71.6951 481.949 71.6462 482.051C70.8881 483.825 70.3431 485.678 70.0221 487.575C68.8698 494.336 70.4695 501.27 74.4801 506.897C74.5309 506.958 74.5646 507.032 74.5781 507.109C74.5917 507.187 74.5845 507.267 74.5573 507.341C74.5124 507.44 74.4419 507.525 74.3527 507.589C74.2635 507.653 74.1588 507.692 74.049 507.704C73.9392 507.716 73.8281 507.7 73.7267 507.657C73.6253 507.614 73.5373 507.546 73.4713 507.459Z" fill="white"/>
<path d="M96.9568 450.174C95.5556 455.623 95.9729 461.367 98.148 466.569C98.2251 466.699 98.3515 466.794 98.4999 466.834C98.6482 466.873 98.8066 466.854 98.9406 466.78C99.0716 466.703 99.1671 466.58 99.2074 466.436C99.2476 466.292 99.2296 466.138 99.1569 466.007C97.1202 461.071 96.7422 455.631 98.0776 450.472C98.1124 450.329 98.0887 450.178 98.0118 450.052C97.9348 449.925 97.8105 449.833 97.6651 449.794C97.5197 449.756 97.3645 449.773 97.2324 449.844C97.1002 449.915 97.0015 450.033 96.9568 450.174Z" fill="white"/>
<path d="M65.4714 501.788L65.542 501.989C65.4099 501.826 65.2766 501.658 65.1466 501.491C64.9297 501.226 64.7203 500.956 64.5128 500.683C56.3787 490.035 51.028 477.611 48.9245 464.488C48.5023 461.932 48.2053 459.363 48.0332 456.782C47.3212 446.806 48.5283 436.789 51.5923 427.247C52.5585 424.095 53.9806 421.094 55.8156 418.335C56.0915 417.942 56.375 417.558 56.6749 417.184C58.4689 414.813 60.9724 413.042 63.8403 412.117C64.8934 411.802 65.9862 411.631 67.0874 411.609C67.4717 411.597 67.8523 411.606 68.233 411.628C70.6037 411.854 72.9011 412.555 74.9812 413.687C77.0614 414.82 78.8796 416.359 80.3221 418.209C82.4507 420.981 83.9994 424.134 84.8797 427.49C84.9708 427.807 85.0567 428.125 85.1373 428.444C85.6932 430.697 86.0989 432.981 86.3519 435.285C89.0556 458.66 81.6978 484.395 65.4714 501.788Z" fill="#F2F2F2"/>
<path d="M67.0694 411.697C65.5839 423.248 64.5477 434.842 63.9608 446.479C63.3764 458.106 63.2445 469.744 63.5652 481.392C63.7449 487.908 64.0668 494.419 64.5308 500.924C64.582 501.644 65.7438 501.699 65.6919 500.969C64.8654 489.356 64.49 477.724 64.5657 466.072C64.6433 454.432 65.1733 442.805 66.1557 431.192C66.7057 424.696 67.3972 418.212 68.2304 411.742C68.3235 411.019 67.1621 410.976 67.0694 411.697Z" fill="white"/>
<path d="M84.052 427.978C82.609 436.05 77.9643 443.242 71.1248 447.993C69.2167 449.319 67.1577 450.424 64.9889 451.288C64.2956 451.565 64.831 452.572 65.5184 452.297C73.5407 448.994 79.9044 442.737 83.2279 434.882C84.16 432.679 84.8262 430.377 85.2131 428.023C85.3329 427.305 84.171 427.265 84.052 427.978Z" fill="white"/>
<path d="M62.0951 478.998C60.2533 478.072 58.5282 476.94 56.9545 475.625C53.3635 472.628 50.6021 468.799 48.9245 464.488C48.5023 461.932 48.2052 459.363 48.0332 456.782C48.1352 456.834 48.2214 456.912 48.2832 457.007C48.3449 457.103 48.3802 457.212 48.3856 457.324C48.5585 459.239 48.9581 461.127 49.5763 462.952C51.7741 469.463 56.4908 474.878 62.7207 478.042C62.7949 478.074 62.8596 478.123 62.9086 478.186C62.9576 478.249 62.9893 478.323 63.0006 478.401C63.0077 478.508 62.9859 478.616 62.9372 478.713C62.8886 478.81 62.8148 478.892 62.7232 478.953C62.6316 479.013 62.5255 479.049 62.4153 479.057C62.3051 479.065 62.1947 479.044 62.0951 478.998Z" fill="white"/>
<path d="M55.6274 417.62C56.9802 423.081 60.0836 427.979 64.4857 431.599C64.6158 431.679 64.773 431.706 64.9231 431.674C65.0733 431.642 65.2045 431.553 65.288 431.427C65.3673 431.299 65.3932 431.147 65.3603 431.001C65.3275 430.855 65.2383 430.727 65.1114 430.644C60.9585 427.196 58.0349 422.55 56.762 417.376C56.7246 417.234 56.632 417.111 56.5036 417.034C56.3752 416.957 56.2212 416.931 56.074 416.963C55.9268 416.995 55.7979 417.081 55.7146 417.203C55.6312 417.326 55.6 417.475 55.6274 417.62Z" fill="white"/>
<path d="M65.9742 529.312L66.1446 529.444C65.9432 529.376 65.738 529.304 65.5366 529.233C65.2074 529.123 64.8822 529.006 64.5567 528.885C51.827 524.188 40.4628 516.532 31.4492 506.581C29.6832 504.65 28.0154 502.641 26.4457 500.556C20.3411 492.525 15.8305 483.45 13.1467 473.8C12.2217 470.636 11.764 467.36 11.7875 464.071C11.803 463.595 11.83 463.122 11.8765 462.65C12.0795 459.708 13.212 456.901 15.118 454.614C15.8316 453.795 16.6579 453.077 17.5733 452.479C17.8908 452.267 18.2162 452.074 18.5492 451.893C20.6713 450.837 22.994 450.22 25.3716 450.081C27.7493 449.942 30.1308 450.283 32.367 451.084C35.6899 452.3 38.735 454.143 41.3283 456.508C41.58 456.727 41.8279 456.95 42.072 457.177C43.7832 458.782 45.386 460.494 46.8702 462.302C62.0472 480.577 70.0483 506.127 65.9742 529.312Z" fill="#F2F2F2"/>
<path d="M17.6071 452.563C22.7292 463.076 28.2539 473.39 34.1813 483.504C40.1049 493.608 46.4155 503.483 53.1132 513.128C56.8606 518.525 60.7246 523.842 64.7052 529.079C65.1456 529.658 66.1545 529.094 65.7084 528.506C58.6037 519.156 51.8685 509.552 45.5027 499.695C39.1446 489.846 33.1754 479.77 27.5951 469.47C24.4734 463.706 21.4785 457.88 18.6103 451.991C18.2894 451.332 17.2873 451.907 17.6071 452.563Z" fill="white"/>
<path d="M40.9005 457.355C44.1388 464.914 44.1935 473.415 41.0528 481.014C40.1766 483.134 39.0517 485.147 37.7006 487.015C37.2694 487.613 38.2763 488.18 38.7038 487.587C43.6408 480.587 45.5495 471.97 44.0158 463.605C43.5852 461.258 42.8764 458.969 41.9037 456.782C41.6083 456.114 40.6071 456.691 40.9005 457.355Z" fill="white"/>
<path d="M50.5533 511.884C48.4906 512.072 46.4124 512.025 44.3608 511.744C39.6815 511.107 35.2415 509.331 31.4493 506.581C29.6833 504.65 28.0155 502.641 26.4458 500.556C26.5609 500.547 26.6764 500.567 26.781 500.615C26.8856 500.663 26.9756 500.736 27.0422 500.828C28.2444 502.351 29.6232 503.732 31.1511 504.944C36.5955 509.275 43.5577 511.358 50.5533 510.75C50.6331 510.737 50.7149 510.745 50.7908 510.772C50.8667 510.799 50.9342 510.845 50.9869 510.905C51.0523 510.992 51.0933 511.094 51.1057 511.201C51.1182 511.308 51.1016 511.417 51.0578 511.516C51.0139 511.615 50.9443 511.701 50.8558 511.765C50.7673 511.83 50.663 511.871 50.5533 511.884Z" fill="white"/>
<path d="M11.2345 463.567C15.388 467.458 20.7053 469.953 26.4124 470.69C26.726 470.731 26.9903 470.4 26.9933 470.123C26.9896 469.974 26.9273 469.832 26.8191 469.726C26.711 469.62 26.5653 469.56 26.4124 469.556C21.0108 468.834 15.9837 466.456 12.0561 462.766C11.5176 462.259 10.695 463.06 11.2345 463.567Z" fill="white"/>
<path d="M145.274 379.761C146.408 379.002 147.359 378.009 148.058 376.853C148.757 375.697 149.187 374.405 149.319 373.069C149.451 371.732 149.282 370.384 148.822 369.119C148.362 367.853 147.624 366.702 146.659 365.745L150.309 286.229L131.727 288.265L132.807 366.042C131.267 367.731 130.416 369.912 130.414 372.172C130.412 374.433 131.26 376.615 132.797 378.306C134.334 379.997 136.452 381.079 138.752 381.348C141.052 381.616 143.372 381.051 145.274 379.761Z" fill="#FFB8B8"/>
<path d="M179.172 514.363L189.749 516.177L200.201 477.228L186.344 474.55L179.172 514.363Z" fill="#FFB8B8"/>
<path d="M208.418 529.262L175.18 523.559L177.437 511.025L197.834 514.525C199.52 514.814 201.132 515.425 202.576 516.322C204.021 517.219 205.27 518.385 206.253 519.754C207.236 521.122 207.933 522.666 208.304 524.298C208.676 525.929 208.714 527.616 208.418 529.262Z" fill="#2F2E41"/>
<path d="M150.144 519.53L160.883 519.529L165.991 479.105L150.143 479.106L150.144 519.53Z" fill="#FFB8B8"/>
<path d="M181.592 529.26L147.843 529.262L147.843 516.536L168.552 516.535C172.01 516.535 175.327 517.875 177.772 520.262C180.217 522.648 181.591 525.885 181.592 529.26Z" fill="#2F2E41"/>
<path d="M195.823 508.46C195.656 508.46 195.488 508.451 195.322 508.431L182.683 507.416C182.107 507.35 181.552 507.171 181.05 506.888C180.547 506.606 180.109 506.227 179.762 505.775C179.414 505.323 179.165 504.806 179.028 504.256C178.891 503.707 178.871 503.136 178.967 502.578L190.638 438.738L182.752 398.155C182.687 397.826 182.503 397.53 182.233 397.322C181.963 397.115 181.625 397.01 181.281 397.026C180.938 397.043 180.612 397.18 180.364 397.413C180.116 397.646 179.963 397.958 179.932 398.292L170.074 506.538C169.965 507.625 169.429 508.627 168.578 509.335C167.726 510.043 166.627 510.4 165.511 510.331L153.603 509.899C152.56 509.826 151.58 509.384 150.847 508.655C150.115 507.925 149.682 506.96 149.63 505.94L148.83 376.203L210.562 368.672L214.875 433.675L214.858 433.743L199.976 505.272C199.749 506.18 199.217 506.988 198.464 507.566C197.711 508.144 196.781 508.459 195.823 508.46Z" fill="#2F2E41"/>
<path d="M169.183 234.703C181.064 234.703 190.695 225.302 190.695 213.707C190.695 202.111 181.064 192.711 169.183 192.711C157.302 192.711 147.67 202.111 147.67 213.707C147.67 225.302 157.302 234.703 169.183 234.703Z" fill="#FFB8B8"/>
<path d="M189.453 385.685C186.088 385.705 182.788 384.784 179.943 383.03C169.523 376.674 157.687 379.2 151.559 381.272C150.951 381.48 150.303 381.551 149.663 381.48C149.022 381.408 148.407 381.197 147.862 380.861C147.324 380.531 146.869 380.087 146.532 379.561C146.194 379.035 145.983 378.441 145.914 377.825L134.771 280.693C132.903 264.419 142.948 249.118 158.654 244.312C159.244 244.131 159.844 243.96 160.454 243.798C165.342 242.504 170.46 242.272 175.45 243.117C180.439 243.962 185.178 245.865 189.333 248.69C193.566 251.546 197.105 255.273 199.703 259.608C202.301 263.943 203.894 268.781 204.369 273.782L213.75 371.564C213.814 372.197 213.727 372.836 213.495 373.431C213.262 374.025 212.892 374.559 212.413 374.99C209.124 377.959 199.58 385.684 189.453 385.685Z" fill="#1428A0"/>
<path d="M155.52 301.522L130.38 298.825C129.665 298.748 128.975 298.521 128.357 298.161C127.739 297.801 127.209 297.314 126.801 296.736C126.393 296.157 126.118 295.499 125.994 294.807C125.87 294.115 125.901 293.406 126.083 292.726L132.482 268.922C132.906 265.353 134.762 262.092 137.644 259.856C140.527 257.62 144.2 256.591 147.858 256.994C151.517 257.398 154.863 259.2 157.161 262.007C159.46 264.814 160.525 268.396 160.122 271.968L161.072 296.481C161.099 297.183 160.971 297.882 160.696 298.531C160.421 299.18 160.006 299.764 159.479 300.242C158.952 300.721 158.326 301.083 157.643 301.304C156.96 301.525 156.236 301.599 155.52 301.522Z" fill="#1428A0"/>
<path d="M213.65 376.356C214.682 375.469 215.503 374.372 216.054 373.142C216.605 371.912 216.873 370.579 216.839 369.237C216.806 367.895 216.471 366.576 215.858 365.374C215.246 364.172 214.371 363.115 213.295 362.279L207.099 282.914L188.891 286.914L199.58 364.204C198.26 366.061 197.684 368.327 197.961 370.571C198.239 372.815 199.35 374.882 201.084 376.379C202.818 377.877 205.056 378.702 207.371 378.698C209.687 378.694 211.921 377.861 213.65 376.356Z" fill="#FFB8B8"/>
<path d="M181.911 296.533C181.384 296.055 180.968 295.472 180.694 294.822C180.419 294.173 180.29 293.474 180.318 292.772L181.268 268.259C180.865 264.688 181.929 261.105 184.228 258.298C186.527 255.492 189.873 253.689 193.531 253.286C197.19 252.882 200.863 253.912 203.745 256.148C206.628 258.384 208.484 261.644 208.907 265.213L215.306 289.018C215.489 289.697 215.519 290.407 215.396 291.099C215.272 291.79 214.997 292.448 214.589 293.027C214.181 293.606 213.65 294.092 213.033 294.452C212.415 294.813 211.725 295.039 211.01 295.116L185.869 297.814C185.154 297.891 184.43 297.816 183.747 297.595C183.063 297.374 182.437 297.012 181.911 296.533Z" fill="#1428A0"/>
<path d="M167.903 235.494C167.521 235.493 167.14 235.45 166.768 235.364L166.658 235.338C147.744 232.514 143.564 221.822 142.647 217.357C141.697 212.734 142.779 208.271 145.222 206.538C143.89 202.432 144.104 198.792 145.859 195.714C148.921 190.345 155.565 188.53 156.456 188.308C161.762 184.488 168.11 187.038 169.266 187.555C179.53 183.849 183.453 186.934 184.162 187.623C188.75 188.427 191.547 190.157 192.475 192.765C194.219 197.664 188.704 203.758 188.469 204.015L188.346 204.148L180.13 204.53C179.351 204.567 178.588 204.762 177.891 205.105C177.194 205.448 176.578 205.93 176.084 206.519C175.59 207.109 175.229 207.794 175.023 208.528C174.818 209.263 174.773 210.032 174.892 210.785C175.114 211.757 175.395 212.714 175.733 213.653C177.136 217.933 178.187 221.589 176.831 222.979C176.524 223.248 176.146 223.427 175.739 223.496C175.332 223.565 174.914 223.52 174.532 223.368C173.247 223.033 172.375 223.103 171.941 223.577C171.266 224.312 171.472 226.171 172.521 228.813C172.85 229.649 172.938 230.556 172.777 231.437C172.615 232.318 172.21 233.14 171.605 233.812C171.149 234.337 170.582 234.759 169.943 235.049C169.304 235.339 168.608 235.491 167.903 235.494Z" fill="#2F2E41"/>
<path d="M421.961 302.613H315.98C312.033 302.609 308.248 301.076 305.457 298.352C302.665 295.627 301.095 291.934 301.091 288.081V132.644C301.095 128.791 302.665 125.097 305.457 122.373C308.248 119.649 312.033 118.116 315.98 118.112H421.961C425.909 118.116 429.694 119.649 432.485 122.373C435.277 125.097 436.847 128.791 436.851 132.644V288.081C436.847 291.934 435.277 295.627 432.485 298.352C429.694 301.076 425.909 302.609 421.961 302.613ZM315.98 119.821C312.497 119.825 309.158 121.177 306.695 123.581C304.232 125.985 302.846 129.244 302.842 132.644V288.081C302.846 291.48 304.232 294.739 306.695 297.143C309.158 299.547 312.497 300.899 315.98 300.903H421.961C425.445 300.899 428.784 299.547 431.247 297.143C433.71 294.739 435.095 291.48 435.099 288.081V132.644C435.095 129.244 433.71 125.985 431.247 123.581C428.784 121.177 425.445 119.825 421.961 119.821H315.98Z" fill="#3F3D56"/>
<path d="M405.758 192.838H332.184C330.21 192.836 328.318 192.07 326.922 190.708C325.527 189.346 324.741 187.499 324.739 185.572V151.379C324.741 149.452 325.527 147.605 326.922 146.243C328.318 144.881 330.21 144.115 332.184 144.113H405.758C407.731 144.115 409.624 144.881 411.02 146.243C412.415 147.605 413.2 149.452 413.203 151.379V185.572C413.2 187.499 412.415 189.346 411.02 190.708C409.624 192.07 407.731 192.836 405.758 192.838Z" fill="#1428A0"/>
<path d="M400.502 224.895H337.439C335.581 224.895 333.799 224.174 332.485 222.892C331.171 221.609 330.432 219.87 330.432 218.056C330.432 216.242 331.171 214.503 332.485 213.22C333.799 211.938 335.581 211.217 337.439 211.217H400.502C402.361 211.217 404.143 211.938 405.457 213.22C406.771 214.503 407.509 216.242 407.509 218.056C407.509 219.87 406.771 221.609 405.457 222.892C404.143 224.174 402.361 224.895 400.502 224.895Z" fill="#CCCCCC"/>
<path d="M400.502 250.54H337.439C335.581 250.54 333.799 249.819 332.485 248.537C331.171 247.254 330.432 245.515 330.432 243.701C330.432 241.887 331.171 240.148 332.485 238.865C333.799 237.583 335.581 236.862 337.439 236.862H400.502C402.361 236.862 404.143 237.583 405.457 238.865C406.771 240.148 407.509 241.887 407.509 243.701C407.509 245.515 406.771 247.254 405.457 248.537C404.143 249.819 402.361 250.54 400.502 250.54Z" fill="#CCCCCC"/>
<path d="M400.502 276.185H337.439C335.581 276.185 333.799 275.464 332.485 274.182C331.171 272.899 330.432 271.16 330.432 269.346C330.432 267.533 331.171 265.793 332.485 264.511C333.799 263.228 335.581 262.508 337.439 262.508H400.502C402.361 262.508 404.143 263.228 405.457 264.511C406.771 265.793 407.509 267.533 407.509 269.346C407.509 271.16 406.771 272.899 405.457 274.182C404.143 275.464 402.361 276.185 400.502 276.185Z" fill="#CCCCCC"/>
<path d="M680.344 389.806H574.364C570.416 389.802 566.631 388.27 563.84 385.545C561.048 382.821 559.478 379.127 559.474 375.274V219.838C559.478 215.985 561.048 212.291 563.84 209.566C566.631 206.842 570.416 205.31 574.364 205.305H680.344C684.292 205.31 688.077 206.842 690.868 209.566C693.66 212.291 695.23 215.985 695.234 219.838V375.274C695.23 379.127 693.66 382.821 690.868 385.545C688.077 388.27 684.292 389.802 680.344 389.806ZM574.364 207.015C570.88 207.019 567.541 208.371 565.078 210.775C562.615 213.179 561.229 216.438 561.225 219.838V375.274C561.229 378.674 562.615 381.933 565.078 384.337C567.541 386.741 570.88 388.093 574.364 388.097H680.344C683.828 388.093 687.167 386.741 689.63 384.337C692.093 381.933 693.479 378.674 693.482 375.274V219.838C693.479 216.438 692.093 213.179 689.63 210.775C687.167 208.371 683.828 207.019 680.344 207.015H574.364Z" fill="#3F3D56"/>
<path d="M658.885 243.701H595.822C593.964 243.701 592.182 242.981 590.868 241.698C589.554 240.416 588.815 238.676 588.815 236.862C588.815 235.049 589.554 233.309 590.868 232.027C592.182 230.744 593.964 230.024 595.822 230.024H658.885C660.744 230.024 662.526 230.744 663.84 232.027C665.154 233.309 665.892 235.049 665.892 236.862C665.892 238.676 665.154 240.416 663.84 241.698C662.526 242.981 660.744 243.701 658.885 243.701Z" fill="#CCCCCC"/>
<path d="M658.885 269.346H595.822C593.964 269.346 592.182 268.626 590.868 267.343C589.554 266.061 588.815 264.321 588.815 262.508C588.815 260.694 589.554 258.954 590.868 257.672C592.182 256.389 593.964 255.669 595.822 255.669H658.885C660.744 255.669 662.526 256.389 663.84 257.672C665.154 258.954 665.892 260.694 665.892 262.508C665.892 264.321 665.154 266.061 663.84 267.343C662.526 268.626 660.744 269.346 658.885 269.346Z" fill="#CCCCCC"/>
<path d="M664.141 334.741H590.567C588.593 334.739 586.701 333.973 585.305 332.61C583.91 331.248 583.125 329.401 583.122 327.475V293.282C583.125 291.355 583.91 289.508 585.305 288.146C586.701 286.784 588.593 286.018 590.567 286.015H664.141C666.115 286.018 668.007 286.784 669.403 288.146C670.798 289.508 671.583 291.355 671.586 293.282V327.475C671.583 329.401 670.798 331.248 669.403 332.61C668.007 333.973 666.115 334.739 664.141 334.741Z" fill="#E6E6E6"/>
<path d="M658.885 365.088H595.822C593.964 365.088 592.182 364.368 590.868 363.085C589.554 361.803 588.815 360.063 588.815 358.25C588.815 356.436 589.554 354.696 590.868 353.414C592.182 352.131 593.964 351.411 595.822 351.411H658.885C660.744 351.411 662.526 352.131 663.84 353.414C665.154 354.696 665.892 356.436 665.892 358.25C665.892 360.063 665.154 361.803 663.84 363.085C662.526 364.368 660.744 365.088 658.885 365.088Z" fill="#CCCCCC"/>
<path d="M615.53 142.758H509.549C505.601 142.754 501.816 141.221 499.025 138.497C496.234 135.772 494.663 132.079 494.659 128.226V31.773C494.663 27.9202 496.234 24.2264 499.025 21.502C501.816 18.7776 505.601 17.2451 509.549 17.2408H615.53C619.477 17.2451 623.262 18.7776 626.053 21.502C628.845 24.2264 630.415 27.9202 630.42 31.773V128.226C630.415 132.079 628.845 135.772 626.053 138.497C623.262 141.221 619.477 142.754 615.53 142.758ZM509.549 18.9505C506.066 18.9543 502.726 20.3065 500.263 22.7104C497.8 25.1142 496.415 28.3735 496.411 31.773V128.226C496.415 131.625 497.8 134.885 500.263 137.288C502.726 139.692 506.066 141.045 509.549 141.048H615.53C619.013 141.045 622.352 139.692 624.815 137.288C627.278 134.885 628.664 131.625 628.668 128.226V31.773C628.664 28.3735 627.278 25.1142 624.815 22.7104C622.352 20.3065 619.013 18.9543 615.53 18.9505H509.549Z" fill="#3F3D56"/>
<path d="M594.071 112.483H531.008C529.149 112.483 527.367 111.763 526.053 110.48C524.739 109.198 524.001 107.458 524.001 105.645C524.001 103.831 524.739 102.091 526.053 100.809C527.367 99.5265 529.149 98.806 531.008 98.806H594.071C595.929 98.806 597.711 99.5265 599.025 100.809C600.339 102.091 601.078 103.831 601.078 105.645C601.078 107.458 600.339 109.198 599.025 110.48C597.711 111.763 595.929 112.483 594.071 112.483Z" fill="#CCCCCC"/>
<path d="M594.071 86.8382H531.008C529.149 86.8382 527.367 86.1177 526.053 84.8352C524.739 83.5527 524.001 81.8132 524.001 79.9995C524.001 78.1858 524.739 76.4463 526.053 75.1638C527.367 73.8813 529.149 73.1608 531.008 73.1608H594.071C595.929 73.1608 597.711 73.8813 599.025 75.1638C600.339 76.4463 601.078 78.1858 601.078 79.9995C601.078 81.8132 600.339 83.5527 599.025 84.8352C597.711 86.1177 595.929 86.8382 594.071 86.8382Z" fill="#CCCCCC"/>
<path d="M594.071 61.1931H531.008C529.149 61.1931 527.367 60.4726 526.053 59.1901C524.739 57.9075 524.001 56.1681 524.001 54.3543C524.001 52.5406 524.739 50.8012 526.053 49.5187C527.367 48.2362 529.149 47.5156 531.008 47.5156H594.071C595.929 47.5156 597.711 48.2362 599.025 49.5187C600.339 50.8012 601.078 52.5406 601.078 54.3543C601.078 56.1681 600.339 57.9075 599.025 59.1901C597.711 60.4726 595.929 61.1931 594.071 61.1931Z" fill="#CCCCCC"/>
<path d="M428.092 141.903C439.218 141.903 448.238 133.101 448.238 122.242C448.238 111.383 439.218 102.581 428.092 102.581C416.967 102.581 407.947 111.383 407.947 122.242C407.947 133.101 416.967 141.903 428.092 141.903Z" fill="#1428A0"/>
<path d="M426.096 129.742C425.642 129.743 425.201 129.6 424.838 129.335L424.816 129.318L420.082 125.781C419.861 125.617 419.676 125.413 419.537 125.179C419.398 124.946 419.307 124.688 419.27 124.42C419.234 124.152 419.251 123.88 419.323 123.619C419.394 123.357 419.517 123.113 419.685 122.898C419.854 122.684 420.064 122.504 420.304 122.369C420.543 122.234 420.808 122.146 421.083 122.111C421.357 122.076 421.636 122.094 421.903 122.165C422.171 122.235 422.421 122.357 422.64 122.522L425.707 124.817L432.953 115.593C433.121 115.379 433.331 115.199 433.57 115.065C433.809 114.93 434.073 114.842 434.347 114.807C434.621 114.772 434.899 114.789 435.166 114.859C435.433 114.929 435.683 115.049 435.902 115.213L435.857 115.273L435.903 115.214C436.345 115.545 436.635 116.035 436.708 116.574C436.781 117.114 436.631 117.66 436.293 118.092L427.769 128.941C427.572 129.191 427.318 129.393 427.028 129.532C426.738 129.671 426.419 129.743 426.096 129.742Z" fill="white"/>
<path d="M690.855 229.952C701.981 229.952 711 221.149 711 210.29C711 199.432 701.981 190.629 690.855 190.629C679.729 190.629 670.71 199.432 670.71 210.29C670.71 221.149 679.729 229.952 690.855 229.952Z" fill="#3F3D56"/>
<path d="M688.858 217.791C688.405 217.791 687.964 217.648 687.601 217.383L687.578 217.367L682.844 213.829C682.624 213.665 682.439 213.461 682.299 213.227C682.16 212.994 682.07 212.736 682.033 212.468C681.996 212.2 682.014 211.928 682.085 211.667C682.156 211.406 682.28 211.161 682.448 210.947C682.616 210.732 682.826 210.552 683.066 210.417C683.306 210.282 683.571 210.195 683.845 210.16C684.12 210.125 684.399 210.143 684.666 210.213C684.933 210.284 685.183 210.405 685.403 210.57L688.469 212.865L695.716 203.641C695.884 203.427 696.093 203.248 696.332 203.113C696.572 202.978 696.836 202.891 697.11 202.855C697.383 202.82 697.662 202.838 697.928 202.907C698.195 202.977 698.445 203.097 698.665 203.261L698.62 203.321L698.666 203.262C699.108 203.594 699.397 204.083 699.47 204.623C699.543 205.162 699.394 205.708 699.055 206.14L690.531 216.99C690.334 217.24 690.081 217.442 689.791 217.581C689.5 217.72 689.181 217.792 688.858 217.791Z" fill="white"/>
<path d="M626.916 39.3226C638.042 39.3226 647.061 30.5199 647.061 19.6613C647.061 8.80266 638.042 0 626.916 0C615.79 0 606.771 8.80266 606.771 19.6613C606.771 30.5199 615.79 39.3226 626.916 39.3226Z" fill="#3F3D56"/>
<path d="M624.919 27.1616C624.466 27.1625 624.025 27.0194 623.662 26.7541L623.639 26.7376L618.905 23.2C618.685 23.0364 618.5 22.832 618.361 22.5985C618.221 22.3649 618.131 22.1069 618.094 21.8391C618.057 21.5713 618.075 21.299 618.146 21.0379C618.217 20.7768 618.341 20.532 618.509 20.3176C618.677 20.1031 618.887 19.9232 619.127 19.7881C619.367 19.6531 619.632 19.5655 619.906 19.5305C620.181 19.4956 620.46 19.5138 620.727 19.5842C620.994 19.6547 621.245 19.7759 621.464 19.941L624.53 22.2359L631.777 13.0123C631.945 12.7983 632.154 12.6188 632.394 12.4839C632.633 12.349 632.897 12.2615 633.171 12.2262C633.444 12.1909 633.723 12.2086 633.989 12.2783C634.256 12.348 634.506 12.4683 634.726 12.6323L634.681 12.692L634.727 12.6332C635.169 12.9648 635.458 13.4541 635.531 13.9937C635.604 14.5333 635.455 15.079 635.116 15.5113L626.592 26.3605C626.395 26.6105 626.142 26.8128 625.852 26.9517C625.561 27.0907 625.242 27.1625 624.919 27.1616Z" fill="white"/>
<path d="M334.584 530H0.875875C0.643578 530 0.420795 529.91 0.256537 529.75C0.0922787 529.589 0 529.372 0 529.145C0 528.918 0.0922787 528.701 0.256537 528.541C0.420795 528.38 0.643578 528.29 0.875875 528.29H334.584C334.816 528.29 335.039 528.38 335.203 528.541C335.368 528.701 335.46 528.918 335.46 529.145C335.46 529.372 335.368 529.589 335.203 529.75C335.039 529.91 334.816 530 334.584 530Z" fill="#3F3D56"/>
</g>
<defs>
<clipPath id="clip0_30_238">
<rect width="711" height="530" fill="white"/>
</clipPath>
</defs>
</svg>
