<svg width="732" height="502" viewBox="0 0 732 502" fill="none" xmlns="http://www.w3.org/2000/svg">
<g clip-path="url(#clip0_19_189)">
<path opacity="0.1" d="M124.944 73.8183C121.027 78.0711 119.519 84.0505 117.832 89.6717C104.251 134.974 70.7848 171.413 32.6727 197.441C16.533 208.466 -3.11637 223.252 0.414645 243.019C2.31596 253.635 10.6575 261.45 16.8546 270.096C29.8565 288.2 34.0737 312.808 27.8765 334.481C20.8288 359.141 1.12943 382.15 7.22651 407.085C10.9863 422.433 23.7522 433.355 36.025 442.743C55.1716 457.38 74.9282 471.091 95.2947 483.876C108.947 492.446 123.471 500.785 139.382 501.872C153.392 502.831 167.116 498.067 180.418 493.367C192.04 489.255 203.956 484.976 213.341 476.74C219.466 471.361 224.348 464.423 231.153 460.023C247.136 449.688 267.664 456.237 285.991 460.662C329.235 471.048 375.517 467.256 416.667 449.957C479.79 423.417 527.902 367.685 589.644 337.781C616.191 324.921 645.068 316.94 669.65 300.376C683.498 290.946 695.4 279.424 704.817 266.329C723.401 240.678 733.451 207.974 730.549 175.96C727.647 143.947 711.386 113.097 685.847 95.0244C658.506 75.6793 623.975 72.0661 592.868 60.4526C560.76 48.4427 532.183 27.8122 500.382 14.9517C474.634 4.56201 446.612 -0.537259 418.372 0.0282234C390.133 0.593706 362.394 6.80958 337.191 18.2196C302.56 33.8875 267.471 70.4417 228.902 73.2172C201.425 75.1357 146.402 50.5275 124.944 73.8183Z" fill="#12279E"/>
<path d="M620.523 221.96C620.523 221.96 610.116 190.336 622.474 167.065C627.73 157.332 629.315 146.336 626.992 135.729C625.844 130.701 624.183 125.777 622.031 121.02" stroke="#535461" stroke-width="2" stroke-miterlimit="10"/>
<path d="M629.758 106.318C629.758 110.193 621.895 121.429 621.895 121.429C621.895 121.429 614.033 110.193 614.033 106.318C613.953 105.353 614.096 104.384 614.454 103.471C614.812 102.558 615.377 101.721 616.113 101.012C616.848 100.303 617.74 99.7372 618.731 99.3505C619.722 98.9638 620.792 98.7642 621.874 98.7642C622.955 98.7642 624.025 98.9638 625.016 99.3505C626.007 99.7372 626.899 100.303 627.635 101.012C628.371 101.721 628.935 102.558 629.293 103.471C629.651 104.384 629.795 105.353 629.715 106.318H629.758Z" fill="#12279E"/>
<path d="M642.688 127.78C640.337 131.035 626.899 136.656 626.899 136.656C626.899 136.656 627.142 123.412 629.493 120.157C630.689 118.734 632.444 117.77 634.403 117.459C636.363 117.148 638.381 117.513 640.051 118.481C641.721 119.449 642.919 120.947 643.403 122.674C643.887 124.401 643.621 126.228 642.66 127.786L642.688 127.78Z" fill="#12279E"/>
<path d="M642.123 164.468C638.256 166.214 623.539 165.006 623.539 165.006C623.539 165.006 631.223 153.68 635.09 151.934C636.923 151.253 638.977 151.218 640.838 151.835C642.7 152.453 644.231 153.677 645.125 155.263C646.019 156.849 646.209 158.679 645.658 160.385C645.106 162.091 643.854 163.548 642.152 164.462L642.123 164.468Z" fill="#12279E"/>
<path d="M634.711 192.165C631.23 194.468 616.463 195.51 616.463 195.51C616.463 195.51 621.895 183.187 625.383 180.878C627.062 179.966 629.061 179.648 630.988 179.988C632.916 180.329 634.63 181.302 635.796 182.716C636.961 184.131 637.492 185.885 637.285 187.632C637.078 189.38 636.147 190.995 634.675 192.159L634.711 192.165Z" fill="#12279E"/>
<path d="M610.459 137.404C613.568 140.103 628.042 142.904 628.042 142.904C628.042 142.904 624.468 130.044 621.388 127.339C620.669 126.618 619.792 126.037 618.811 125.632C617.83 125.228 616.767 125.009 615.687 124.988C614.608 124.968 613.535 125.147 612.536 125.513C611.537 125.88 610.633 126.427 609.881 127.12C609.128 127.813 608.544 128.637 608.163 129.541C607.782 130.445 607.614 131.41 607.668 132.375C607.722 133.34 607.998 134.284 608.478 135.149C608.958 136.015 609.632 136.782 610.459 137.404Z" fill="#12279E"/>
<path d="M602.246 169.866C606.113 171.612 620.83 170.403 620.83 170.403C620.83 170.403 613.146 159.077 609.279 157.331C607.446 156.65 605.392 156.615 603.531 157.233C601.67 157.85 600.138 159.075 599.244 160.661C598.35 162.246 598.16 164.076 598.711 165.782C599.263 167.489 600.515 168.945 602.217 169.859L602.246 169.866Z" fill="#12279E"/>
<path d="M599.101 202.397C602.582 204.7 617.349 205.742 617.349 205.742C617.349 205.742 611.917 193.419 608.429 191.11C607.611 190.463 606.652 189.976 605.612 189.678C604.572 189.381 603.475 189.281 602.39 189.384C601.304 189.487 600.255 189.791 599.308 190.277C598.361 190.763 597.538 191.42 596.89 192.206C596.243 192.992 595.785 193.89 595.547 194.843C595.308 195.796 595.294 196.783 595.506 197.741C595.717 198.699 596.149 199.608 596.774 200.408C597.399 201.209 598.204 201.884 599.136 202.391L599.101 202.397Z" fill="#12279E"/>
<path opacity="0.1" d="M629.758 106.318C629.758 110.193 621.895 121.429 621.895 121.429C621.895 121.429 614.033 110.193 614.033 106.318C613.953 105.353 614.096 104.384 614.454 103.471C614.812 102.558 615.377 101.721 616.113 101.012C616.848 100.303 617.74 99.7372 618.731 99.3505C619.722 98.9638 620.792 98.7642 621.874 98.7642C622.955 98.7642 624.025 98.9638 625.016 99.3505C626.007 99.7372 626.899 100.303 627.635 101.012C628.371 101.721 628.935 102.558 629.293 103.471C629.651 104.384 629.795 105.353 629.715 106.318H629.758Z" fill="#12279E"/>
<path opacity="0.1" d="M642.688 127.78C640.337 131.035 626.899 136.656 626.899 136.656C626.899 136.656 627.142 123.412 629.493 120.157C630.689 118.734 632.444 117.77 634.403 117.459C636.363 117.148 638.381 117.513 640.051 118.481C641.721 119.449 642.919 120.947 643.403 122.674C643.887 124.401 643.621 126.228 642.66 127.786L642.688 127.78Z" fill="#12279E"/>
<path opacity="0.1" d="M642.123 164.468C638.256 166.214 623.539 165.006 623.539 165.006C623.539 165.006 631.223 153.68 635.09 151.934C636.923 151.253 638.977 151.218 640.838 151.835C642.7 152.453 644.231 153.677 645.125 155.263C646.019 156.849 646.209 158.679 645.658 160.385C645.106 162.091 643.854 163.548 642.152 164.462L642.123 164.468Z" fill="#12279E"/>
<path opacity="0.1" d="M634.711 192.165C631.23 194.468 616.463 195.51 616.463 195.51C616.463 195.51 621.895 183.187 625.383 180.878C627.062 179.966 629.061 179.648 630.988 179.988C632.916 180.329 634.63 181.302 635.796 182.716C636.961 184.131 637.492 185.885 637.285 187.632C637.078 189.38 636.147 190.995 634.675 192.159L634.711 192.165Z" fill="#12279E"/>
<path opacity="0.1" d="M610.459 137.404C613.568 140.103 628.042 142.904 628.042 142.904C628.042 142.904 624.468 130.044 621.388 127.339C620.669 126.618 619.792 126.037 618.811 125.632C617.83 125.228 616.767 125.009 615.687 124.988C614.608 124.968 613.535 125.147 612.536 125.513C611.537 125.88 610.633 126.427 609.881 127.12C609.128 127.813 608.544 128.637 608.163 129.541C607.782 130.445 607.614 131.41 607.668 132.375C607.722 133.34 607.998 134.284 608.478 135.149C608.958 136.015 609.632 136.782 610.459 137.404Z" fill="#12279E"/>
<path opacity="0.1" d="M602.246 169.866C606.113 171.612 620.83 170.403 620.83 170.403C620.83 170.403 613.146 159.077 609.279 157.331C607.446 156.65 605.392 156.615 603.531 157.233C601.67 157.85 600.138 159.075 599.244 160.661C598.35 162.246 598.16 164.076 598.711 165.782C599.263 167.489 600.515 168.945 602.217 169.859L602.246 169.866Z" fill="#12279E"/>
<path opacity="0.1" d="M599.101 202.397C602.582 204.7 617.349 205.742 617.349 205.742C617.349 205.742 611.917 193.419 608.429 191.11C607.611 190.463 606.652 189.976 605.612 189.678C604.572 189.381 603.475 189.281 602.39 189.384C601.304 189.487 600.255 189.791 599.308 190.277C598.361 190.763 597.538 191.42 596.89 192.206C596.243 192.992 595.785 193.89 595.547 194.843C595.308 195.796 595.294 196.783 595.506 197.741C595.717 198.699 596.149 199.608 596.774 200.408C597.399 201.209 598.204 201.884 599.136 202.391L599.101 202.397Z" fill="#12279E"/>
<path d="M664.124 272.481C664.124 272.481 653.717 240.857 666.076 217.586C671.332 207.853 672.917 196.857 670.593 186.25C669.445 181.222 667.785 176.298 665.633 171.541" stroke="#535461" stroke-width="2" stroke-miterlimit="10"/>
<path d="M673.359 156.839C673.359 160.714 665.497 171.95 665.497 171.95C665.497 171.95 657.634 160.714 657.634 156.839C657.554 155.874 657.698 154.905 658.056 153.992C658.414 153.079 658.978 152.242 659.714 151.533C660.45 150.824 661.342 150.258 662.333 149.871C663.324 149.485 664.394 149.285 665.475 149.285C666.557 149.285 667.627 149.485 668.618 149.871C669.609 150.258 670.501 150.824 671.237 151.533C671.973 152.242 672.537 153.079 672.895 153.992C673.253 154.905 673.396 155.874 673.316 156.839H673.359Z" fill="#12279E"/>
<path d="M686.29 178.301C683.938 181.556 670.529 187.171 670.529 187.171C670.529 187.171 670.772 173.927 673.124 170.671C673.645 169.826 674.356 169.086 675.211 168.498C676.066 167.909 677.047 167.484 678.093 167.249C679.14 167.014 680.229 166.974 681.294 167.133C682.358 167.291 683.375 167.643 684.28 168.168C685.186 168.693 685.961 169.378 686.558 170.183C687.154 170.987 687.56 171.893 687.748 172.843C687.936 173.794 687.904 174.769 687.653 175.708C687.403 176.647 686.938 177.529 686.29 178.301Z" fill="#12279E"/>
<path d="M685.725 214.989C681.858 216.735 667.141 215.526 667.141 215.526C667.141 215.526 674.825 204.201 678.692 202.455C679.619 201.957 680.65 201.635 681.723 201.51C682.795 201.385 683.884 201.46 684.923 201.728C685.962 201.997 686.927 202.454 687.759 203.072C688.592 203.69 689.272 204.455 689.759 205.318C690.246 206.182 690.529 207.126 690.589 208.092C690.65 209.058 690.487 210.025 690.111 210.932C689.735 211.839 689.154 212.667 688.404 213.364C687.655 214.061 686.752 214.612 685.754 214.983L685.725 214.989Z" fill="#12279E"/>
<path d="M678.313 242.686C674.832 244.989 660.064 246.031 660.064 246.031C660.064 246.031 665.497 233.708 668.985 231.399C670.664 230.487 672.663 230.169 674.59 230.509C676.517 230.85 678.232 231.823 679.397 233.237C680.563 234.652 681.094 236.406 680.887 238.153C680.679 239.901 679.748 241.516 678.277 242.68L678.313 242.686Z" fill="#12279E"/>
<path d="M654.06 187.925C657.17 190.624 671.644 193.425 671.644 193.425C671.644 193.425 668.07 180.565 664.989 177.86C663.468 176.715 661.518 176.128 659.533 176.217C657.547 176.306 655.673 177.065 654.288 178.341C652.903 179.617 652.109 181.315 652.067 183.093C652.025 184.872 652.737 186.598 654.06 187.925Z" fill="#12279E"/>
<path d="M645.847 220.387C649.714 222.133 664.432 220.924 664.432 220.924C664.432 220.924 656.748 209.598 652.881 207.853C651.047 207.172 648.994 207.136 647.133 207.754C645.271 208.371 643.74 209.596 642.846 211.182C641.952 212.768 641.762 214.597 642.313 216.304C642.864 218.01 644.117 219.466 645.819 220.381L645.847 220.387Z" fill="#12279E"/>
<path d="M642.702 252.918C646.183 255.221 660.951 256.263 660.951 256.263C660.951 256.263 655.518 243.94 652.03 241.631C651.213 240.984 650.254 240.497 649.214 240.199C648.174 239.902 647.077 239.802 645.991 239.905C644.906 240.008 643.856 240.312 642.909 240.798C641.963 241.284 641.139 241.941 640.492 242.727C639.844 243.513 639.387 244.411 639.148 245.364C638.91 246.317 638.896 247.304 639.107 248.262C639.319 249.22 639.751 250.129 640.376 250.929C641.001 251.73 641.805 252.405 642.738 252.912L642.702 252.918Z" fill="#12279E"/>
<path opacity="0.1" d="M673.359 156.839C673.359 160.714 665.497 171.95 665.497 171.95C665.497 171.95 657.634 160.714 657.634 156.839C657.554 155.874 657.698 154.905 658.056 153.992C658.414 153.079 658.978 152.242 659.714 151.533C660.45 150.824 661.342 150.258 662.333 149.871C663.324 149.485 664.394 149.285 665.475 149.285C666.557 149.285 667.627 149.485 668.618 149.871C669.609 150.258 670.501 150.824 671.237 151.533C671.973 152.242 672.537 153.079 672.895 153.992C673.253 154.905 673.396 155.874 673.316 156.839H673.359Z" fill="#12279E"/>
<path opacity="0.1" d="M686.29 178.301C683.938 181.556 670.529 187.171 670.529 187.171C670.529 187.171 670.772 173.927 673.124 170.671C673.645 169.826 674.356 169.086 675.211 168.498C676.066 167.909 677.047 167.484 678.093 167.249C679.14 167.014 680.229 166.974 681.294 167.133C682.358 167.291 683.375 167.643 684.28 168.168C685.186 168.693 685.961 169.378 686.558 170.183C687.154 170.987 687.56 171.893 687.748 172.843C687.936 173.794 687.904 174.769 687.653 175.708C687.403 176.647 686.938 177.529 686.29 178.301Z" fill="#12279E"/>
<path opacity="0.1" d="M685.725 214.989C681.858 216.735 667.141 215.526 667.141 215.526C667.141 215.526 674.825 204.201 678.692 202.455C679.619 201.957 680.65 201.635 681.723 201.51C682.795 201.385 683.884 201.46 684.923 201.728C685.962 201.997 686.927 202.454 687.759 203.072C688.592 203.69 689.272 204.455 689.759 205.318C690.246 206.182 690.529 207.126 690.589 208.092C690.65 209.058 690.487 210.025 690.111 210.932C689.735 211.839 689.154 212.667 688.404 213.364C687.655 214.061 686.752 214.612 685.754 214.983L685.725 214.989Z" fill="#12279E"/>
<path opacity="0.1" d="M678.313 242.686C674.832 244.989 660.064 246.031 660.064 246.031C660.064 246.031 665.497 233.708 668.985 231.399C670.664 230.487 672.663 230.169 674.59 230.509C676.517 230.85 678.232 231.823 679.397 233.237C680.563 234.652 681.094 236.406 680.887 238.153C680.679 239.901 679.748 241.516 678.277 242.68L678.313 242.686Z" fill="#12279E"/>
<path opacity="0.1" d="M654.06 187.925C657.17 190.624 671.644 193.425 671.644 193.425C671.644 193.425 668.07 180.565 664.989 177.86C663.468 176.715 661.518 176.128 659.533 176.217C657.547 176.306 655.673 177.065 654.288 178.341C652.903 179.617 652.109 181.315 652.067 183.093C652.025 184.872 652.737 186.598 654.06 187.925Z" fill="#12279E"/>
<path opacity="0.1" d="M645.847 220.387C649.714 222.133 664.432 220.924 664.432 220.924C664.432 220.924 656.748 209.598 652.881 207.853C651.047 207.172 648.994 207.136 647.133 207.754C645.271 208.371 643.74 209.596 642.846 211.182C641.952 212.768 641.762 214.597 642.313 216.304C642.864 218.01 644.117 219.466 645.819 220.381L645.847 220.387Z" fill="#12279E"/>
<path opacity="0.1" d="M642.702 252.918C646.183 255.221 660.951 256.263 660.951 256.263C660.951 256.263 655.518 243.94 652.03 241.631C651.213 240.984 650.254 240.497 649.214 240.199C648.174 239.902 647.077 239.802 645.991 239.905C644.906 240.008 643.856 240.312 642.909 240.798C641.963 241.284 641.139 241.941 640.492 242.727C639.844 243.513 639.387 244.411 639.148 245.364C638.91 246.317 638.896 247.304 639.107 248.262C639.319 249.22 639.751 250.129 640.376 250.929C641.001 251.73 641.805 252.405 642.738 252.912L642.702 252.918Z" fill="#12279E"/>
<path opacity="0.1" d="M385.941 378.211C580.088 361.271 735.005 324.873 731.957 296.913C728.909 268.953 569.051 260.019 374.904 276.959C180.758 293.898 25.8409 330.297 28.8886 358.257C31.9363 386.217 191.794 395.151 385.941 378.211Z" fill="#12279E"/>
<path d="M701.365 301.367C714.581 277.13 711.85 237.679 710.442 224.288C710.135 221.359 709.892 219.677 709.892 219.677C709.892 219.677 698.241 218.033 702.537 205.416C704.638 199.238 697.176 195.823 689.027 193.95C683.201 192.703 677.256 191.951 671.272 191.705L558.415 185.47C542.94 163.496 512.491 167.026 512.491 167.026C512.491 167.026 485.329 164.5 466.073 164.238C463.15 161.934 459.947 159.933 456.523 158.271C454.483 157.175 452.311 156.289 450.048 155.63C447.296 154.92 444.396 154.796 441.581 155.268C438.766 155.74 436.114 156.795 433.836 158.348C432.726 159.063 431.822 160.003 431.199 161.092C430.959 161.587 430.779 162.103 430.663 162.633C430.372 163.536 430.134 164.452 429.948 165.376C429.78 165.821 429.539 166.242 429.233 166.623C428.461 167.602 427.132 168.337 426.96 169.52C426.956 169.589 426.956 169.657 426.96 169.725C426.819 169.951 426.724 170.198 426.681 170.454C426.63 170.981 426.757 171.509 427.046 171.97C427.089 172.046 427.139 172.117 427.189 172.187C426.239 173.418 425.463 174.75 424.88 176.152C424.616 176.281 424.36 176.424 424.115 176.581L423.901 176.721V177.111L423.779 177.194L423.515 183.494L423.665 183.596C423.881 186.534 424.872 189.385 426.557 191.915C428.242 194.445 430.572 196.582 433.357 198.151C433.45 198.554 433.536 198.963 433.622 199.392C434.014 201.457 434.192 203.551 434.151 205.646H434.029C430.67 204.367 424.923 206.247 419.984 208.441H355.997C368.477 194.077 383.744 182.937 383.744 182.937V170.313C372.837 169.827 277.013 211.012 256.006 220.105L255.077 220.508L147.109 223.501C127.553 223.392 110.455 225.963 95.6448 230.152C70.896 237.107 48.6562 249.819 31.2002 266.988C18.4485 279.509 12.8589 289.856 12.8589 289.856L12.9804 290.726L12.8589 290.95L13.0304 291.084L15.9396 311.625L17.941 325.758C4.03134 333.803 22.051 337.026 22.051 337.026C39.2057 350.187 66.8034 349.644 66.8034 349.644C73.5438 357.874 93.1645 356.774 93.1645 356.774H196.157C197.761 348.314 199.909 339.944 202.59 331.706C206.986 360.029 231.968 381.728 262.117 381.728C264.354 381.727 266.588 381.605 268.808 381.363C271.028 381.605 273.262 381.727 275.498 381.728C305.998 381.728 331.201 359.518 335.168 330.721H340.207C339.266 337.155 337.631 343.492 335.325 349.644C427.896 325.509 600.166 313.991 600.166 313.991C600.881 307.916 601.667 302.045 602.518 296.411C609.615 312.175 625.705 323.181 644.432 323.181C646.133 323.179 647.833 323.085 649.521 322.9C651.21 323.085 652.91 323.179 654.611 323.181C676.848 323.181 695.353 307.66 699.528 287.081C700.08 290.713 700.395 294.371 700.471 298.036C699.678 301.527 698.984 303.759 698.891 304.073C699.449 303.16 699.978 302.227 700.478 301.272C700.478 301.642 700.478 302.026 700.478 302.41C700.307 303.049 700.185 303.407 700.149 303.529L700.464 303.005C700.464 303.286 700.464 303.561 700.464 303.842C700.392 303.868 700.771 302.947 701.365 301.367Z" fill="url(#paint0_linear_19_189)"/>
<path d="M690.564 214.28H478.346V290.873H690.564V214.28Z" fill="#6F7D95"/>
<path d="M424.387 178.41L454.529 238.824L514.221 235.588L516.629 210.775L518.438 181.645L434.036 176.248L424.387 178.41Z" fill="#4B5C7A"/>
<path d="M424.387 178.41C424.387 178.41 435.823 168.702 449.712 166.54C463.6 164.379 510.003 168.696 510.003 168.696L516.637 178.928L515.393 183.801L424.387 178.41Z" fill="#FF4D52"/>
<path d="M538.03 209.426H324.003V265.523H538.03V209.426Z" fill="#4B5C7A"/>
<path d="M485.372 247.591C491.026 230.676 479.754 219.562 479.754 219.562L461.069 207.897C461.054 207.937 461.035 207.975 461.012 208.012C458.582 205.464 456.843 202.448 455.93 199.2C455.873 198.995 455.823 198.784 455.766 198.56C457.474 197.425 458.97 196.054 460.197 194.499C463.242 192.83 464.6 190.144 465.115 187.465C467.074 184.864 468.634 182.04 469.754 179.068C469.939 178.588 470.097 178.099 470.226 177.604C470.586 176.682 470.746 175.708 470.698 174.732C470.545 173.646 470.141 172.601 469.511 171.663C466.366 166.547 460.705 162.985 454.965 160.081C452.959 159.003 450.822 158.132 448.597 157.485C445.891 156.787 443.04 156.665 440.272 157.129C437.504 157.594 434.897 158.631 432.657 160.158C431.565 160.861 430.676 161.786 430.062 162.857C429.826 163.343 429.648 163.852 429.533 164.372C429.256 165.261 429.029 166.162 428.854 167.071C428.699 167.505 428.472 167.917 428.182 168.293C427.418 169.252 426.117 169.974 425.945 171.145C425.941 171.213 425.941 171.281 425.945 171.349C425.807 171.572 425.715 171.814 425.673 172.066C425.621 172.583 425.745 173.103 426.031 173.556C426.074 173.632 426.124 173.703 426.174 173.773C425.238 174.984 424.475 176.294 423.901 177.674C423.639 177.801 423.386 177.942 423.143 178.096L422.936 178.23V178.614L422.814 178.697L422.55 184.894L422.693 184.996C422.904 187.887 423.877 190.691 425.534 193.18C427.19 195.669 429.481 197.771 432.221 199.315C432.314 199.711 432.4 200.114 432.478 200.536C432.91 202.768 433.082 205.033 432.993 207.296C432.965 207.101 432.965 206.903 432.993 206.708C427.825 204.616 416.553 210.398 412.014 212.956C411.326 213.247 410.684 213.619 410.106 214.062L410.027 214.113C406.903 216.377 400.735 222.67 395.839 238.843C389.048 261.411 389.756 266.527 384.809 271.758C379.863 276.989 374.953 313.844 374.953 313.844L384.91 316.242L386.182 312.584C398.019 322.241 431.163 326.89 431.163 326.89L432.178 324.07C437.26 325.707 445.759 323.219 445.759 323.219C458.182 319.293 462.835 309.329 471.848 296.187C480.862 283.046 485.372 247.591 485.372 247.591ZM435.266 315.59L458.21 251.914C460.29 261.801 451.113 277.373 450.298 287.554C449.79 294.103 441.27 307.117 435.266 315.59Z" fill="url(#paint1_linear_19_189)"/>
<path d="M463.971 180.59C463.971 180.59 467.967 194.205 456.109 196.578C444.251 198.951 452.063 190.458 452.063 190.458L463.5 180.488L463.971 180.59Z" fill="#472727"/>
<path d="M414.394 213.039C414.394 213.039 405.574 216.236 399.091 237.775C392.608 259.314 393.251 264.174 388.584 269.181C383.916 274.188 379.134 309.323 379.134 309.323L388.469 311.574L396.596 288.091L418.947 226.059L414.394 213.039Z" fill="#DDE0E4"/>
<path opacity="0.05" d="M414.394 213.039C414.394 213.039 405.574 216.236 399.091 237.775C392.608 259.314 393.251 264.174 388.584 269.181C383.916 274.188 379.134 309.323 379.134 309.323L388.469 311.574L396.596 288.091L418.947 226.059L414.394 213.039Z" fill="black"/>
<path d="M463.371 210.609C463.371 210.609 426.445 227.402 431.849 216.447C434.522 211.037 434.422 205.429 433.643 201.099C433.199 198.549 432.419 196.055 431.32 193.668C431.32 193.668 456.423 175.903 454.951 190.407C454.598 193.528 454.84 196.681 455.666 199.731C457.839 207.424 463.371 210.609 463.371 210.609Z" fill="#DB8B8B"/>
<path opacity="0.1" d="M455.666 199.756C453.291 201.462 450.499 202.642 447.517 203.197C444.536 203.753 441.45 203.67 438.511 202.954C436.792 202.54 435.145 201.918 433.615 201.106C433.17 198.555 432.39 196.061 431.292 193.674C431.292 193.674 456.395 175.909 454.922 190.413C454.577 193.543 454.828 196.702 455.666 199.756Z" fill="black"/>
<path d="M462.494 189.894C465.269 180.672 459.163 171.184 448.856 168.7C438.549 166.217 427.943 171.68 425.168 180.902C422.392 190.124 428.498 199.613 438.805 202.096C449.113 204.579 459.718 199.116 462.494 189.894Z" fill="#DB8B8B"/>
<path opacity="0.1" d="M434.122 176.964C433.592 177.254 433.002 177.445 432.387 177.526C431.772 177.606 431.146 177.575 430.545 177.433C429.944 177.292 429.381 177.043 428.89 176.702C428.4 176.361 427.991 175.934 427.689 175.449C427.424 175.015 427.31 174.521 427.36 174.029C427.525 172.916 428.754 172.226 429.505 171.305C430.67 169.815 430.448 167.775 431.292 166.118C431.872 165.107 432.71 164.231 433.736 163.56C435.825 162.099 438.271 161.101 440.874 160.648C443.476 160.194 446.162 160.298 448.711 160.951C450.797 161.56 452.797 162.382 454.672 163.4C460.047 166.144 465.344 169.501 468.253 174.381C468.842 175.276 469.217 176.271 469.354 177.303C469.386 178.418 469.167 179.527 468.71 180.565C467.635 183.431 466.138 186.156 464.257 188.667C463.628 187.968 462.839 187.399 461.941 186.998C461.489 186.807 460.98 186.747 460.487 186.829C459.995 186.91 459.543 187.128 459.197 187.452C458.575 188.162 458.196 189.518 457.253 189.198C456.638 188.993 456.645 188.232 456.674 187.644C456.802 185.086 455.244 182.675 453.15 180.948C451.055 179.222 448.461 178.083 445.902 176.964C444.065 176.158 441.613 174.31 439.597 173.984C437.096 173.568 435.916 175.973 434.122 176.964Z" fill="black"/>
<path d="M434.387 176.088C433.856 176.378 433.266 176.569 432.651 176.65C432.037 176.73 431.41 176.699 430.809 176.557C430.208 176.416 429.646 176.167 429.155 175.826C428.664 175.485 428.256 175.059 427.954 174.573C427.688 174.139 427.574 173.645 427.625 173.153C427.789 172.04 429.019 171.35 429.769 170.429C430.934 168.939 430.713 166.899 431.556 165.242C432.137 164.231 432.974 163.355 434.001 162.684C436.09 161.223 438.535 160.225 441.138 159.772C443.741 159.318 446.426 159.422 448.975 160.075C451.061 160.684 453.061 161.506 454.937 162.524C460.312 165.268 465.608 168.625 468.517 173.505C469.107 174.4 469.482 175.395 469.618 176.427C469.65 177.542 469.432 178.651 468.975 179.689C467.9 182.555 466.402 185.28 464.522 187.791C463.893 187.092 463.103 186.523 462.206 186.122C461.753 185.931 461.244 185.871 460.752 185.953C460.259 186.034 459.808 186.252 459.461 186.576C458.839 187.286 458.46 188.642 457.517 188.322C456.902 188.117 456.909 187.356 456.938 186.768C457.067 184.21 455.508 181.799 453.414 180.072C451.32 178.346 448.725 177.207 446.166 176.088C444.329 175.282 441.878 173.434 439.862 173.108C437.36 172.686 436.181 175.097 434.387 176.088Z" fill="#472727"/>
<path d="M444.508 212.898C444.508 212.898 459.797 210.219 460.462 208.025L477.945 219.069C477.945 219.069 488.467 229.615 483.085 245.756C483.085 245.756 478.703 279.579 470.183 292.133C461.663 304.686 456.766 320.949 445.094 324.748C445.094 324.748 433.872 318.276 430.169 318.353C430.169 318.353 449.175 293.713 449.99 284.011C450.805 274.31 459.49 259.435 457.588 250.021L431.856 321.582C431.856 321.582 390.399 315.827 386.196 303.516C386.196 303.516 389.77 298.713 389.105 293.847C388.441 288.98 404.745 252.368 404.745 252.368L412.55 214.19C412.55 214.19 427.989 204.54 434.137 207.047C434.108 207.008 432.993 211.773 444.508 212.898Z" fill="#DDE0E4"/>
<g opacity="0.1">
<path d="M450.076 183.212C446.302 178.608 439.104 182.387 437.925 183.046L436.074 182.88C434.458 181.307 429.505 177.124 424.852 180.2L424.651 180.335L424.373 186.237L424.573 186.378C425.917 187.306 427.441 188.004 429.069 188.437C430.099 188.708 431.187 188.756 432.242 188.578C433.023 188.417 433.755 188.104 434.386 187.662C435.017 187.22 435.532 186.659 435.895 186.02L436.86 186.077L437.575 185.956C437.718 186.636 438.021 187.281 438.465 187.848C438.909 188.415 439.482 188.89 440.148 189.243C443.343 190.861 448.01 189.243 448.203 189.211L448.446 189.128L450.162 183.417L450.076 183.212ZM447.653 188.405C446.702 188.693 443.114 189.639 440.705 188.405C440.106 188.069 439.6 187.614 439.228 187.075C438.857 186.536 438.628 185.928 438.561 185.297L438.475 184.83L436.91 185.118L435.337 185.067L435.187 185.335C434.9 185.916 434.468 186.431 433.924 186.839C433.38 187.247 432.739 187.538 432.049 187.689C429.355 188.207 426.238 186.34 425.423 185.809L425.659 180.821C429.705 178.384 434.165 182.336 435.452 183.628L435.588 183.762L438.196 183.993L438.354 183.897C438.425 183.858 444.908 179.964 448.604 183.097C448.787 183.249 448.957 183.414 449.111 183.59L447.653 188.405Z" fill="black"/>
<path d="M461.784 186.18L449.633 185.278L448.632 185.105L449.083 183.596C448.928 183.42 448.758 183.256 448.575 183.104L450.048 183.231L459.99 184.101L461.784 186.18Z" fill="black"/>
</g>
<path d="M450.205 182.803C446.431 178.198 439.233 181.978 438.053 182.637L436.202 182.47C434.587 180.897 429.633 176.715 424.98 179.791L424.78 179.925L424.501 185.828L424.701 185.968C426.045 186.897 427.57 187.595 429.197 188.028C430.228 188.299 431.316 188.347 432.371 188.168C433.152 188.007 433.884 187.695 434.515 187.253C435.146 186.811 435.661 186.25 436.024 185.61L436.988 185.668L437.703 185.546C437.846 186.226 438.15 186.871 438.594 187.438C439.037 188.005 439.611 188.481 440.276 188.833C443.471 190.451 448.139 188.833 448.332 188.801L448.575 188.718L450.291 183.008L450.205 182.803ZM447.782 187.996C446.831 188.283 443.243 189.23 440.834 187.996C440.234 187.659 439.729 187.204 439.357 186.665C438.985 186.126 438.757 185.518 438.69 184.888L438.604 184.421L437.038 184.709L435.487 184.619L435.337 184.888C435.055 185.472 434.627 185.99 434.085 186.403C433.544 186.815 432.903 187.111 432.214 187.267C429.519 187.785 426.403 185.917 425.588 185.387L425.824 180.398C429.869 177.962 434.329 181.914 435.616 183.206L435.752 183.34L438.361 183.57L438.518 183.474C438.59 183.436 445.073 179.541 448.768 182.675C448.951 182.827 449.121 182.992 449.276 183.167L447.782 187.996Z" fill="#472727"/>
<path d="M461.899 185.77L449.79 184.869L448.789 184.696L449.24 183.187C449.085 183.011 448.916 182.846 448.732 182.694L450.205 182.822L460.147 183.692L461.899 185.77Z" fill="#472727"/>
<path d="M378.862 253.117H166.644V329.71H378.862V253.117Z" fill="#6F7D95"/>
<path d="M263.768 379.873C296.475 379.873 322.988 353.913 322.988 321.889C322.988 289.866 296.475 263.905 263.768 263.905C231.062 263.905 204.549 289.866 204.549 321.889C204.549 353.913 231.062 379.873 263.768 379.873Z" fill="#4B5C7A"/>
<path opacity="0.05" d="M263.768 379.873C296.475 379.873 322.988 353.913 322.988 321.889C322.988 289.866 296.475 263.905 263.768 263.905C231.062 263.905 204.549 289.866 204.549 321.889C204.549 353.913 231.062 379.873 263.768 379.873Z" fill="black"/>
<path d="M276.928 379.873C309.634 379.873 336.147 353.913 336.147 321.889C336.147 289.866 309.634 263.905 276.928 263.905C244.222 263.905 217.708 289.866 217.708 321.889C217.708 353.913 244.222 379.873 276.928 379.873Z" fill="#4B5C7A"/>
<path opacity="0.05" d="M275.612 345.73C290.148 345.73 301.931 335.188 301.931 322.184C301.931 309.179 290.148 298.637 275.612 298.637C261.077 298.637 249.294 309.179 249.294 322.184C249.294 335.188 261.077 345.73 275.612 345.73Z" fill="black"/>
<path d="M275.612 329.25C279.975 329.25 283.511 326.086 283.511 322.183C283.511 318.281 279.975 315.117 275.612 315.117C271.25 315.117 267.714 318.281 267.714 322.183C267.714 326.086 271.25 329.25 275.612 329.25Z" stroke="#6F7D95" stroke-width="2" stroke-miterlimit="10"/>
<path d="M275.612 311.587C276.702 311.587 277.585 310.797 277.585 309.822C277.585 308.847 276.702 308.057 275.612 308.057C274.523 308.057 273.64 308.847 273.64 309.822C273.64 310.797 274.523 311.587 275.612 311.587Z" fill="#6F7D95"/>
<path d="M287.676 314.582C288.51 313.956 288.619 312.842 287.919 312.096C287.219 311.349 285.974 311.252 285.14 311.878C284.305 312.505 284.196 313.618 284.896 314.365C285.597 315.112 286.841 315.209 287.676 314.582Z" fill="#6F7D95"/>
<path d="M292.386 323.129C292.575 322.169 291.859 321.254 290.786 321.085C289.713 320.915 288.69 321.556 288.5 322.516C288.311 323.476 289.028 324.392 290.101 324.561C291.174 324.73 292.197 324.089 292.386 323.129Z" fill="#6F7D95"/>
<path d="M285.79 333.281C286.733 332.794 287.057 331.714 286.512 330.87C285.967 330.026 284.761 329.737 283.817 330.224C282.873 330.712 282.55 331.791 283.095 332.635C283.64 333.479 284.846 333.769 285.79 333.281Z" fill="#6F7D95"/>
<path d="M275.403 334.237C275.776 333.321 275.248 332.308 274.224 331.974C273.2 331.641 272.068 332.113 271.695 333.029C271.323 333.945 271.85 334.958 272.874 335.292C273.898 335.625 275.03 335.153 275.403 334.237Z" fill="#6F7D95"/>
<path d="M265.375 328.786C266.399 328.452 266.927 327.439 266.554 326.523C266.181 325.607 265.049 325.135 264.026 325.469C263.002 325.802 262.474 326.815 262.846 327.731C263.219 328.647 264.351 329.119 265.375 328.786Z" fill="#6F7D95"/>
<path d="M266.295 317.759C266.84 316.915 266.517 315.835 265.573 315.348C264.63 314.86 263.423 315.15 262.878 315.994C262.333 316.838 262.657 317.918 263.6 318.405C264.544 318.892 265.75 318.603 266.295 317.759Z" fill="#6F7D95"/>
<path d="M702.444 277.079C700.421 289.575 694.796 303.254 694.796 303.254C694.834 302.401 694.858 301.559 694.867 300.728C694.867 299.654 694.867 298.592 694.867 297.531C694.152 263.087 673.174 241.836 659.643 231.661C656.126 228.98 652.343 226.591 648.342 224.524H685.117C685.117 224.524 699.585 250.955 702.601 263.899C703.473 267.531 703.23 272.219 702.444 277.079Z" fill="#FF4D52"/>
<path opacity="0.05" d="M702.444 277.079C700.421 289.575 694.796 303.254 694.796 303.254C694.834 302.401 694.858 301.559 694.867 300.728C694.867 299.654 694.867 298.592 694.867 297.531C694.152 263.087 673.174 241.836 659.643 231.661C656.126 228.98 652.343 226.591 648.342 224.524H685.117C685.117 224.524 699.585 250.955 702.601 263.899C703.473 267.531 703.23 272.219 702.444 277.079Z" fill="black"/>
<path d="M639.743 322.299C664.617 322.299 684.782 302.554 684.782 278.198C684.782 253.842 664.617 234.098 639.743 234.098C614.869 234.098 594.705 253.842 594.705 278.198C594.705 302.554 614.869 322.299 639.743 322.299Z" fill="#4B5C7A"/>
<path opacity="0.05" d="M639.743 322.299C664.617 322.299 684.782 302.554 684.782 278.198C684.782 253.842 664.617 234.098 639.743 234.098C614.869 234.098 594.705 253.842 594.705 278.198C594.705 302.554 614.869 322.299 639.743 322.299Z" fill="black"/>
<path d="M649.75 322.299C674.624 322.299 694.789 302.554 694.789 278.198C694.789 253.842 674.624 234.098 649.75 234.098C624.876 234.098 604.712 253.842 604.712 278.198C604.712 302.554 624.876 322.299 649.75 322.299Z" fill="#4B5C7A"/>
<path opacity="0.05" d="M648.75 296.328C659.803 296.328 668.763 288.311 668.763 278.422C668.763 268.533 659.803 260.516 648.75 260.516C637.696 260.516 628.736 268.533 628.736 278.422C628.736 288.311 637.696 296.328 648.75 296.328Z" fill="black"/>
<path d="M648.749 283.794C652.065 283.794 654.754 281.389 654.754 278.422C654.754 275.455 652.065 273.05 648.749 273.05C645.433 273.05 642.745 275.455 642.745 278.422C642.745 281.389 645.433 283.794 648.749 283.794Z" stroke="#6F7D95" stroke-width="2" stroke-miterlimit="10"/>
<path d="M648.749 270.364C649.578 270.364 650.251 269.763 650.251 269.021C650.251 268.279 649.578 267.678 648.749 267.678C647.92 267.678 647.248 268.279 647.248 269.021C647.248 269.763 647.92 270.364 648.749 270.364Z" fill="#6F7D95"/>
<path d="M657.929 272.641C658.564 272.164 658.647 271.317 658.114 270.749C657.581 270.181 656.635 270.107 656 270.584C655.365 271.06 655.282 271.907 655.815 272.476C656.347 273.044 657.294 273.118 657.929 272.641Z" fill="#6F7D95"/>
<path d="M661.506 279.147C661.65 278.417 661.105 277.72 660.289 277.591C659.472 277.462 658.694 277.95 658.55 278.681C658.406 279.411 658.951 280.108 659.767 280.236C660.584 280.365 661.362 279.877 661.506 279.147Z" fill="#6F7D95"/>
<path d="M656.496 286.867C657.214 286.496 657.46 285.674 657.045 285.032C656.631 284.39 655.713 284.17 654.995 284.54C654.277 284.911 654.031 285.733 654.445 286.375C654.86 287.017 655.778 287.237 656.496 286.867Z" fill="#6F7D95"/>
<path d="M648.594 287.591C648.878 286.894 648.476 286.123 647.697 285.87C646.918 285.616 646.056 285.975 645.773 286.672C645.489 287.369 645.891 288.14 646.67 288.394C647.449 288.647 648.31 288.288 648.594 287.591Z" fill="#6F7D95"/>
<path d="M640.964 283.44C641.743 283.186 642.145 282.416 641.861 281.719C641.578 281.022 640.716 280.662 639.937 280.916C639.158 281.17 638.757 281.94 639.04 282.637C639.324 283.334 640.185 283.694 640.964 283.44Z" fill="#6F7D95"/>
<path d="M641.673 275.056C642.087 274.413 641.841 273.592 641.124 273.221C640.406 272.85 639.488 273.07 639.073 273.713C638.659 274.355 638.905 275.176 639.623 275.547C640.34 275.918 641.258 275.698 641.673 275.056Z" fill="#6F7D95"/>
<path d="M24.0667 327.824L18.6201 289.524H83.129L116.288 315.955L100.012 349.938C100.012 349.938 34.3452 340.23 24.0667 327.824Z" fill="#FF4D52"/>
<path opacity="0.05" d="M116.309 315.955L100.034 349.938C100.034 349.938 34.3452 340.23 24.0667 327.824L23.8308 326.155L18.8273 290.739L18.7773 290.387L18.6558 289.53H83.1647L116.309 315.955Z" fill="black"/>
<path d="M383.394 171.938V184.344C383.394 184.344 350.057 208.645 342.123 231.572C340.738 235.295 340.215 239.231 340.586 243.14C343.602 268.49 253.783 222.638 253.783 222.638L257.779 220.898C278.429 211.99 372.665 171.452 383.394 171.938Z" fill="#7597CE"/>
<path d="M459.361 231.815C459.361 231.815 490.583 218.091 495.593 207.936C496.265 206.573 496.901 205.198 497.645 203.862C500.74 198.292 507.244 185.227 503.971 178.953C499.753 170.863 514.221 180.034 514.221 180.034L505.779 218.321L485.279 228.553L458.754 231.815" fill="#FF4D52"/>
<path opacity="0.05" d="M459.361 231.815C459.361 231.815 490.583 218.091 495.593 207.936C496.265 206.573 496.901 205.198 497.645 203.862C500.74 198.292 507.244 185.227 503.971 178.953C499.753 170.863 514.221 180.034 514.221 180.034L505.779 218.321L485.279 228.553L458.754 231.815" fill="black"/>
<path opacity="0.05" d="M116.309 315.955L100.034 349.938C100.034 349.938 34.3452 340.23 24.0667 327.824L23.8308 326.155C24.0953 325.995 24.374 325.829 24.6671 325.669C24.6671 325.669 44.5594 339.693 89.7836 342.935C89.7836 342.935 116.945 323.514 72.9005 301.943C72.9005 301.943 34.5883 303.017 18.8059 290.745L18.6343 290.617L18.7559 290.394C18.8607 290.21 19.0299 289.925 19.2633 289.537H83.1433L116.309 315.955Z" fill="black"/>
<path opacity="0.05" d="M340.586 243.134C343.602 268.491 253.783 222.638 253.783 222.638L257.779 220.898C260.423 223.418 270.981 231.917 292.088 230.996C305.669 230.402 326.29 230.945 342.158 231.565C340.761 235.286 340.226 239.222 340.586 243.134Z" fill="black"/>
<path opacity="0.05" d="M378.87 253.117V329.71H339.442C342.044 311.894 340.543 285.923 315.254 271.036C305.822 265.52 294.87 262.442 283.607 262.142C272.344 261.842 261.207 264.331 251.424 269.335C234.848 277.802 216.314 295.017 204.535 329.71H166.651V253.117H378.87Z" fill="black"/>
<path opacity="0.05" d="M702.444 277.079C700.957 285.533 698.57 293.745 694.874 300.741C694.398 301.683 693.878 302.602 693.316 303.497C693.409 303.184 694.088 300.997 694.874 297.556C698.705 280.801 705.26 234.437 661.344 231.789C660.772 231.757 660.207 231.725 659.643 231.706C656.128 229.009 652.345 226.606 648.342 224.524H685.117C685.117 224.524 699.585 250.955 702.601 263.899C703.473 267.531 703.23 272.219 702.444 277.079Z" fill="black"/>
<path d="M694.51 302.973C695.082 301.125 715.453 234.462 662.538 231.271C608.879 228.035 602.246 264.174 596.22 313.262C596.22 313.262 426.817 324.588 335.768 348.327C335.768 348.327 357.626 294.736 316.469 270.499C307.037 264.983 296.085 261.905 284.822 261.605C273.559 261.304 262.422 263.794 252.639 268.798C232.34 279.17 209.088 302.691 198.916 355.336H97.6177C97.6177 355.336 78.3186 356.416 71.6925 348.301C71.6925 348.301 44.5309 348.838 27.6835 335.895C27.6835 335.895 9.59952 332.659 24.0667 324.569C24.0667 324.569 44.5666 338.593 89.7837 341.836C89.7837 341.836 116.945 322.414 72.9005 300.843C72.9005 300.843 34.3023 301.924 18.6415 289.518C18.6415 289.518 24.1382 279.343 36.6826 267.033C53.8403 250.146 75.7024 237.64 100.034 230.792C116.428 226.257 133.517 224.052 150.676 224.256L257.085 221.289C257.085 221.289 267.364 233.158 292.052 232.077C316.741 230.996 365.003 233.695 365.003 233.695H365.482L464.779 229.673C467.63 229.312 470.451 228.778 473.221 228.074C487.616 224.576 514.921 213.966 509.996 184.338L666.147 192.971C672.033 193.213 677.879 193.952 683.609 195.178C691.629 197.019 698.963 200.383 696.897 206.458C692.68 218.865 704.131 220.483 704.131 220.483C704.131 220.483 704.374 222.139 704.674 225.017C706.104 238.587 708.913 279.388 694.51 302.973Z" fill="#FF4D52"/>
<path opacity="0.05" d="M216.993 243.678C216.993 243.678 151.877 244.215 109.061 278.211H133.178C133.178 278.211 200.703 262.569 216.979 250.162L216.993 243.678Z" fill="black"/>
<path d="M216.386 243.134C216.386 243.134 151.269 243.671 108.454 277.667H132.57C132.57 277.667 200.096 262.025 216.371 249.619L216.386 243.134Z" fill="#FFEC9F"/>
<path opacity="0.05" d="M100.634 231.335V245.833L45.7817 268.491L37.2901 267.576C54.4458 250.691 76.3053 238.185 100.634 231.335Z" fill="black"/>
<path d="M100.026 230.798V245.296L45.167 267.947L36.6754 267.033C53.834 250.149 75.696 237.645 100.026 230.798Z" fill="#FFEC9F"/>
<path opacity="0.05" d="M177.802 296.539C177.802 296.539 148.26 312.719 145.243 348.339H162.127C162.127 348.339 168.76 309.502 188.052 296.539H177.802Z" fill="black"/>
<path opacity="0.05" d="M526.887 297.62L373.745 313.8C373.745 313.8 363.616 256.116 365.489 233.676L464.786 229.653C467.635 229.299 470.453 228.771 473.221 228.074V233.426L547.98 217.247C547.98 217.247 560.646 233.964 526.887 297.62Z" fill="black"/>
<path d="M510.003 168.695C510.003 168.695 542.562 164.922 557.029 189.735L510.468 188.13L510.003 168.695Z" fill="#FF4D52"/>
<path opacity="0.05" d="M554.77 198.433C553.491 202.02 554.456 205.966 561.868 208.697C568.036 210.973 575.27 208.339 577.379 202.679C578.608 199.379 577.765 195.644 571.117 192.607C564.47 189.569 557.007 192.165 554.77 198.433Z" fill="black"/>
<path d="M19.7852 297.607C19.7852 297.607 58.4262 315.513 86.1597 308.735" stroke="#FF4D52" stroke-miterlimit="10"/>
<path d="M21.1504 307.277C21.1504 307.277 46.1177 324.505 96.5812 320.502" stroke="#FF4D52" stroke-miterlimit="10"/>
<path d="M22.3011 315.392C22.3011 315.392 47.0683 334.622 97.9607 328.527" stroke="#FF4D52" stroke-miterlimit="10"/>
<path opacity="0.05" d="M555.163 186.838C555.163 186.838 535.021 202.398 516.637 209.432C516.637 209.432 544.556 213.877 555.163 186.838Z" fill="black"/>
<path opacity="0.1" d="M341.772 232.633C341.772 232.633 437.353 240.71 473.521 233.158C473.521 233.158 475.451 234.303 463.936 229.685L341.772 232.633Z" fill="black"/>
<path opacity="0.05" d="M704.681 225.017C698.727 221.519 689.285 214.26 690.571 206.183C691.215 202.135 688.012 198.349 683.617 195.171C691.636 197.013 698.97 200.377 696.904 206.452C692.687 218.858 704.138 220.476 704.138 220.476C704.138 220.476 704.374 222.139 704.681 225.017Z" fill="black"/>
<path d="M224.284 281.319C224.341 279.183 224.284 276.964 224.105 274.924C224.105 274.534 224.034 274.156 223.991 273.786C225.335 274.694 226.135 275.384 226.135 275.384L224.956 219.85L218.451 190.758C218.451 170.128 206.036 164.315 206.036 164.315C206.036 164.315 199.531 161.667 197.758 157.971C195.986 154.275 180.275 146.46 180.268 146.46C180.143 145.113 180.096 143.762 180.125 142.412C180.125 142.06 180.125 141.695 180.161 141.331C184.099 138.994 186.956 135.458 188.201 131.379C189.446 127.301 188.994 122.956 186.93 119.153C187.802 119.153 188.509 118.827 188.838 117.669C189.882 114.005 188.874 108.486 186.501 105.557C185.993 104.944 185.421 104.377 184.792 103.862C184.056 103.201 183.28 102.576 182.469 101.988C180.439 100.479 178.181 98.8933 175.665 99.0212C174.237 99.1883 172.866 99.6242 171.64 100.3C165.355 103.259 159.086 106.243 152.834 109.253C150.526 110.372 148.146 111.549 146.53 113.557C144.915 115.565 144.264 118.136 143.814 120.662C143.435 122.374 143.346 124.126 143.549 125.861C143.739 127.44 144.546 128.908 145.83 130.005C146.088 130.285 146.384 130.536 146.709 130.753C147.981 131.585 149.618 131.79 150.947 132.461C151.952 135.072 153.635 137.432 155.858 139.348C155.858 139.675 155.808 139.988 155.779 140.346C155.701 141.261 155.579 142.265 155.422 143.281C155.422 143.281 151.055 143.179 144.55 151.109C138.046 159.039 123.857 160.1 123.857 160.1C123.857 160.1 118.539 157.984 112.628 181.786C106.717 205.589 104.944 221.436 107.896 224.096C109.15 225.064 110.563 225.853 112.085 226.436C117.096 228.699 122.488 230.212 128.046 230.913C128.117 231.104 128.237 231.277 128.396 231.418L128.818 236.029C129.175 245.762 129.59 265.287 127.388 269.616C124.429 275.436 127.982 279.138 127.982 279.138L128.696 279.093C128.828 279.295 128.977 279.487 129.139 279.669L131.999 279.496C131.791 290.368 131.234 305.448 129.761 308.76C127.395 314.049 129.761 343.14 129.761 343.14L125.623 395.503C125.623 395.503 123.357 422.835 125.48 426.001C124.322 431.686 122.242 442.519 122.671 445.218C123.264 448.921 136.859 454.21 136.859 454.21C136.859 454.21 152.82 457.407 160.504 456.326C164.521 455.77 166.115 453.34 166.129 451.21C171.34 451.959 178.123 452.675 182.376 452.086C190.06 451.031 188.881 443.095 184.742 443.626C180.604 444.157 175.872 436.713 172.355 433.01C170.568 431.143 169.081 427.804 168.066 424.946C168.814 424.845 169.5 424.518 170.011 424.018C171.783 421.371 174.743 397.044 174.743 397.044L182.426 354.734C182.426 354.734 186.565 334.104 190.11 329.346C192.791 325.752 196.143 298.931 197.623 286.013H197.751H197.794L197.951 285.559L200.174 279.138C201.361 281.012 204.349 281.939 207.83 282.336C207.458 283.692 207.151 284.798 206.972 285.431C206.086 288.629 219.009 293.892 222.125 291.251C223.433 290.144 224.112 286.134 224.27 281.747H224.377L224.284 281.319ZM146.616 425.553C146.416 426.583 146.216 427.657 146.015 428.751C145.565 427.472 145.208 426.321 144.965 425.47C145.551 425.489 146.101 425.515 146.616 425.553Z" fill="url(#paint2_linear_19_189)"/>
<path d="M166.437 414.528C166.437 414.528 168.717 423.699 172.155 427.261C175.593 430.823 180.125 437.953 184.106 437.448C188.087 436.943 189.231 444.579 181.826 445.595C174.421 446.612 159.053 443.555 159.053 443.555C159.053 443.555 145.958 438.439 145.394 434.897C144.829 431.354 148.81 412.993 148.81 412.993L166.437 414.528Z" fill="#53526B"/>
<path opacity="0.05" d="M166.437 414.528C166.437 414.528 168.717 423.699 172.155 427.261C175.593 430.823 180.125 437.953 184.106 437.448C188.087 436.943 189.231 444.579 181.826 445.595C174.421 446.612 159.053 443.555 159.053 443.555C159.053 443.555 145.958 438.439 145.394 434.897C144.829 431.354 148.81 412.993 148.81 412.993L166.437 414.528Z" fill="black"/>
<path d="M145.372 418.602C145.372 418.602 147.652 427.772 151.09 431.334C154.528 434.897 159.06 442.027 163.042 441.522C167.023 441.017 168.167 448.652 160.761 449.669C153.356 450.686 137.988 447.635 137.988 447.635C137.988 447.635 124.894 442.519 124.329 438.977C123.764 435.434 127.746 417.073 127.746 417.073L145.372 418.602Z" fill="#53526B"/>
<path d="M197.179 279.049C197.179 279.049 192.626 322.849 189.21 327.434C185.793 332.019 181.812 351.882 181.812 351.882L174.414 392.625C174.414 392.625 171.555 416.057 169.861 418.602C168.167 421.147 147.038 420.054 147.038 420.054L160.147 285.163L197.179 279.049Z" fill="#5F5D7E"/>
<path opacity="0.05" d="M197.179 279.049C197.179 279.049 192.626 322.849 189.21 327.434C185.793 332.019 181.812 351.882 181.812 351.882L174.414 392.625C174.414 392.625 171.555 416.057 169.861 418.602C168.167 421.147 147.038 420.054 147.038 420.054L160.147 285.163L197.179 279.049Z" fill="black"/>
<path d="M206.286 258.169L204.799 262.396L196.758 285.233L196.601 285.668H196.558C195.478 285.885 172.691 290.573 167.773 292.012C167.508 292.085 167.248 292.173 166.994 292.274C164.714 293.291 161.869 329.96 161.869 329.96C161.869 329.96 160.161 364.596 159.01 367.141C157.859 369.686 153.292 422.138 150.469 420.616C147.645 419.094 127.131 420.616 127.131 420.616C124.851 418.576 127.131 391.078 127.131 391.078L131.112 340.653C131.112 340.653 128.832 312.642 131.112 307.545C133.392 302.448 133.392 268.331 133.392 268.331L180.018 261.872L184.521 261.232L206.286 258.169Z" fill="#5F5D7E"/>
<path opacity="0.02" d="M204.799 262.396L196.758 285.233L196.565 285.681C195.485 285.898 172.698 290.586 167.781 292.024H167.287L180.018 261.872L180.382 261.002L184.521 261.239L204.799 262.396Z" fill="black"/>
<path opacity="0.1" d="M151.634 156.308C151.634 156.308 172.698 176.683 185.793 159.87L198.316 167.513L196.036 179.228L203.434 267.851C203.434 267.851 184.078 267.34 170.418 271.413C166.614 272.621 162.503 272.83 158.57 272.018C154.637 271.206 151.045 269.405 148.217 266.828L150.497 188.904L145.372 164.967L151.634 156.308Z" fill="black"/>
<path d="M151.634 154.78C151.634 154.78 172.698 175.154 185.793 158.342L198.316 165.984L196.036 177.7L203.441 266.348C203.441 266.348 184.085 265.837 170.425 269.91C166.621 271.118 162.51 271.327 158.577 270.515C154.644 269.703 151.052 267.902 148.224 265.325L150.504 187.401L145.379 163.464L151.634 154.78Z" fill="#53526B"/>
<path d="M193.677 245.513V248.717H194.828V246.581H199.009V248.717H200.16V245.52L193.677 245.513Z" fill="#E82127"/>
<path d="M194.706 244.477H199.124C199.413 244.415 199.678 244.283 199.89 244.096C200.101 243.909 200.252 243.674 200.325 243.416H193.513C193.586 243.673 193.737 243.908 193.948 244.095C194.16 244.283 194.424 244.414 194.714 244.477" fill="#E82127"/>
<path d="M190.203 248.717C190.454 248.63 190.676 248.49 190.852 248.308C191.028 248.126 191.151 247.909 191.211 247.675H186.057V243.416H184.9V248.717H190.196" fill="#E82127"/>
<path d="M176.322 244.458H180.404C180.694 244.392 180.962 244.263 181.181 244.081C181.401 243.898 181.566 243.67 181.662 243.416H175.157V246.524H180.461V247.623H176.301C175.983 247.699 175.687 247.833 175.432 248.019C175.177 248.204 174.969 248.435 174.821 248.698H181.59V245.5H176.294V244.452" fill="#E82127"/>
<path d="M166.251 244.471H170.668C170.958 244.409 171.223 244.277 171.434 244.09C171.646 243.903 171.796 243.667 171.869 243.409H165.057C165.131 243.667 165.281 243.902 165.493 244.089C165.704 244.276 165.969 244.408 166.258 244.471" fill="#E82127"/>
<path d="M166.251 246.562H170.668C170.958 246.5 171.223 246.369 171.435 246.182C171.647 245.995 171.797 245.759 171.869 245.5H165.057C165.131 245.758 165.281 245.993 165.493 246.18C165.704 246.367 165.969 246.499 166.258 246.562" fill="#E82127"/>
<path d="M166.251 248.717H170.668C170.958 248.655 171.223 248.523 171.434 248.336C171.646 248.149 171.796 247.914 171.869 247.656H165.057C165.131 247.913 165.281 248.148 165.493 248.336C165.704 248.523 165.969 248.654 166.258 248.717" fill="#E82127"/>
<path d="M154.764 243.422C154.84 243.677 154.99 243.91 155.2 244.095C155.41 244.281 155.672 244.413 155.958 244.477H157.817L157.909 244.509V248.704H159.067V244.509L159.175 244.477H161.033C161.318 244.411 161.579 244.278 161.788 244.093C161.998 243.908 162.149 243.676 162.227 243.422H154.764Z" fill="#E82127"/>
<path d="M177.544 232.934L183.341 203.753C188.867 203.753 190.611 204.297 190.868 206.51C190.868 206.51 194.578 205.275 196.443 202.762C191.826 200.908 186.865 199.834 181.812 199.596L177.523 204.258L173.234 199.596C168.18 199.834 163.22 200.908 158.603 202.762C160.468 205.275 164.178 206.51 164.178 206.51C164.428 204.297 166.172 203.753 171.662 203.747L177.509 232.934" fill="#E82127"/>
<path d="M177.544 198.247C184.269 198.173 190.936 199.369 197.108 201.758C197.563 201.072 197.953 200.354 198.273 199.609C184.979 194.791 170.11 194.791 156.816 199.609C157.157 200.348 157.554 201.066 158.002 201.758C164.175 199.369 170.841 198.173 177.566 198.247" fill="#E82127"/>
<path d="M195.471 260.203C195.471 260.203 195.471 273.447 198.888 279.049C202.304 284.651 222.225 281.607 222.225 281.607L218.244 262.761L195.471 260.203Z" fill="#D39999"/>
<path d="M220.06 290.765C217.058 293.323 204.613 288.207 205.471 285.163C206.071 283.007 208.173 275.295 209.366 270.921L210.196 267.845C210.196 267.845 217.486 265.805 220.06 267.845C220.996 268.586 221.654 271.509 221.961 275.039C222.49 281.172 221.968 289.147 220.06 290.765Z" fill="#FDC2CC"/>
<path d="M192.619 163.944L172.698 177.693C172.698 177.693 143.099 176.165 150.497 163.432C153.718 157.833 155.662 151.715 156.215 145.437C156.456 143.12 156.456 140.789 156.215 138.473C156.215 138.473 183.541 116.09 180.125 141.529C179.856 143.482 179.698 145.446 179.653 147.413C179.274 166.508 192.619 163.944 192.619 163.944Z" fill="#FDC2CC"/>
<path opacity="0.1" d="M180.096 141.536C179.827 143.488 179.67 145.452 179.624 147.419C176.558 149.236 172.96 150.202 169.282 150.195C164.185 150.195 160.433 145.756 157.045 142.808C157.423 138.581 156.194 138.479 156.194 138.479C156.194 138.479 183.513 116.064 180.096 141.536Z" fill="black"/>
<path d="M169.282 149.171C179.656 149.171 188.066 141.647 188.066 132.365C188.066 123.083 179.656 115.559 169.282 115.559C158.907 115.559 150.497 123.083 150.497 132.365C150.497 141.647 158.907 149.171 169.282 149.171Z" fill="#FDC2CC"/>
<path opacity="0.1" d="M155.908 148.41C155.908 148.41 152.777 148.666 146.516 156.302C140.254 163.938 126.552 164.961 126.552 164.961C126.552 164.961 121.427 162.921 115.737 185.841C110.048 208.761 108.339 224.038 111.184 226.584C114.029 229.129 125.415 232.697 131.105 232.697C131.105 232.697 132.813 264.781 129.969 270.384C127.124 275.986 130.54 279.554 130.54 279.554L155.558 278.026C155.558 278.026 164.099 268.35 165.808 251.544C167.516 234.737 173.206 186.858 170.361 181.255C167.516 175.653 154.993 161.392 155.558 159.864C156.122 158.336 155.908 148.41 155.908 148.41Z" fill="black"/>
<path d="M155.858 148.257C155.858 148.257 151.648 148.155 145.386 155.797C139.125 163.439 125.466 164.456 125.466 164.456C125.466 164.456 120.341 162.416 114.651 185.336C108.961 208.255 107.253 223.533 110.112 226.059C112.971 228.585 124.343 232.173 130.033 232.173C130.033 232.173 131.741 264.257 128.896 269.859C126.052 275.461 129.468 279.03 129.468 279.03L154.486 277.501C154.486 277.501 163.027 267.825 164.736 251.019C166.444 234.213 172.134 186.333 169.289 180.731C166.444 175.129 153.921 160.868 154.486 159.34C155.05 157.811 155.858 148.257 155.858 148.257Z" fill="#D39999"/>
<path d="M140.848 213.857C140.848 213.857 169.332 184.632 165.329 204.687C162.47 218.948 151.669 226.59 146.544 228.118C141.419 229.647 140.848 213.857 140.848 213.857Z" fill="#FDC2CC"/>
<path opacity="0.1" d="M221.961 275.039C219.238 273.178 214.098 270.281 209.366 270.921L210.196 267.845C210.196 267.845 217.486 265.805 220.06 267.845C221.003 268.586 221.654 271.509 221.961 275.039Z" fill="black"/>
<path opacity="0.1" d="M179.81 151.467C179.81 151.467 194.328 159.87 196.036 163.439C197.744 167.007 204.006 169.553 204.006 169.553C204.006 169.553 215.957 175.155 215.957 195.018L222.218 223.028L193.741 258.674C193.741 258.674 190.325 223.022 188.616 214.363C186.908 205.704 184.635 189.422 184.635 189.422C184.635 189.422 176.093 179.746 177.237 177.201C178.381 174.656 179.81 151.467 179.81 151.467Z" fill="black"/>
<path d="M179.76 151.314C179.76 151.314 194.899 158.854 196.601 162.416C198.302 165.978 204.577 168.504 204.577 168.504C204.577 168.504 216.529 174.106 216.529 193.969L222.79 221.979L223.927 275.455C223.927 275.455 213.677 266.796 206.279 270.87C198.881 274.943 194.328 257.625 194.328 257.625C194.328 257.625 190.911 221.973 189.203 213.314C187.494 204.655 185.221 188.373 185.221 188.373C185.221 188.373 176.68 178.736 177.823 176.178C178.967 173.62 179.76 151.314 179.76 151.314Z" fill="#D39999"/>
<path opacity="0.1" d="M185.772 111.926C184.808 110.829 183.694 109.845 182.455 108.997C180.497 107.539 178.331 106.017 175.9 106.145C174.526 106.309 173.205 106.732 172.026 107.386C165.975 110.238 159.939 113.12 153.921 116.032C151.698 117.106 149.404 118.245 147.852 120.176C146.301 122.107 145.672 124.589 145.236 127.019C144.871 128.665 144.785 130.351 144.979 132.02C145.156 133.656 146.044 135.165 147.452 136.221C149.075 137.276 151.298 137.283 152.656 138.664C153.442 139.464 153.785 140.583 154.343 141.555C154.9 142.527 155.865 143.473 156.966 143.301C158.067 143.128 158.731 142.086 158.889 141.03C158.959 139.961 158.889 138.888 158.681 137.833C158.467 135.914 158.739 133.881 159.982 132.455C160.84 131.482 162.069 130.894 162.899 129.897C164.886 127.492 163.978 123.501 166.158 121.244C166.791 120.654 167.588 120.225 168.467 120C169.346 119.775 170.276 119.763 171.161 119.965C172.927 120.298 174.542 121.154 176.165 121.883C178.357 122.873 180.653 123.665 183.02 124.25C185.007 124.736 187.308 125.9 187.987 123.533C189.024 120.061 188.023 114.747 185.772 111.926Z" fill="black"/>
<path d="M185.2 111.415C184.236 110.318 183.122 109.334 181.883 108.486C179.925 107.028 177.759 105.506 175.329 105.634C173.954 105.798 172.633 106.22 171.455 106.874C165.407 109.727 160.383 107.028 153.349 115.521C151.848 117.337 148.832 117.733 147.281 119.665C145.73 121.596 145.101 124.077 144.665 126.507C144.3 128.153 144.213 129.839 144.407 131.508C144.584 133.145 145.472 134.653 146.88 135.71C148.503 136.765 150.726 136.771 152.084 138.153C152.87 138.952 153.213 140.071 153.771 141.043C154.328 142.015 155.293 142.962 156.394 142.789C157.495 142.616 158.16 141.574 158.317 140.519C158.387 139.449 158.317 138.376 158.11 137.321C157.895 135.403 158.167 133.369 159.41 131.943C160.268 130.971 161.498 130.383 162.327 129.385C164.314 126.98 163.406 122.99 165.586 120.733C166.219 120.142 167.016 119.713 167.895 119.488C168.774 119.264 169.704 119.252 170.59 119.454C172.355 119.786 173.971 120.643 175.593 121.372C177.785 122.361 180.081 123.154 182.448 123.738C184.435 124.224 186.737 125.388 187.416 123.022C188.459 119.549 187.487 114.235 185.2 111.415Z" fill="#865A61"/>
<path d="M133.986 186.864C133.986 186.864 133.414 205.71 130.569 208.255C127.724 210.801 132.277 213.857 132.277 213.857L143.664 211.299C143.664 211.299 140.805 228.106 152.77 226.072C152.77 226.072 144.8 232.691 136.831 233.714C128.861 234.737 129.411 232.192 129.411 232.192L117.46 219.459L133.986 186.864Z" fill="#D39999"/>
<path opacity="0.1" d="M133.893 189.153C133.893 189.153 126.302 206.471 131.999 213.602L144.522 211.044C144.522 211.044 133.135 214.1 134.843 207.987C136.552 201.873 133.893 189.153 133.893 189.153Z" fill="black"/>
<path opacity="0.1" d="M129.718 231.936C129.718 231.936 146.23 232.953 150.783 229.896C144.791 234.003 137.71 236.647 130.233 237.57L129.718 231.936Z" fill="black"/>
<path opacity="0.1" d="M200.889 199.341C200.889 199.341 209.431 222.772 208.859 226.334C208.287 229.896 207.151 269.117 207.151 269.117L205.442 268.606L206.014 225.823L200.889 199.341Z" fill="black"/>
<path d="M560.51 265.6C560.51 265.6 573.018 287.567 562.826 299.583C552.633 311.6 563.755 344.349 563.755 344.349" stroke="#6C63FF" stroke-miterlimit="10"/>
<path d="M564.212 258.764C564.212 262.997 560.738 266.438 560.738 266.438C560.738 266.438 557.265 263.004 557.265 258.764C557.265 254.524 560.738 251.09 560.738 251.09C560.738 251.09 564.212 254.53 564.212 258.764Z" fill="#12279E"/>
<path d="M566.993 265.6C566.993 265.6 554.484 287.567 564.677 299.583C574.87 311.6 563.748 344.349 563.748 344.349" stroke="#6C63FF" stroke-miterlimit="10"/>
<path d="M563.283 258.764C563.283 262.997 566.757 266.438 566.757 266.438C566.757 266.438 570.231 263.004 570.231 258.764C570.231 254.524 566.757 251.09 566.757 251.09C566.757 251.09 563.283 254.53 563.283 258.764Z" fill="#12279E"/>
<path opacity="0.1" d="M563.283 258.764C563.283 262.997 566.757 266.438 566.757 266.438C566.757 266.438 570.231 263.004 570.231 258.764C570.231 254.524 566.757 251.09 566.757 251.09C566.757 251.09 563.283 254.53 563.283 258.764Z" fill="black"/>
<path d="M572.089 265.6C572.089 265.6 584.598 287.567 574.405 299.583C564.212 311.6 575.334 344.349 575.334 344.349" stroke="#6C63FF" stroke-miterlimit="10"/>
<path d="M575.792 258.764C575.792 262.997 572.318 266.438 572.318 266.438C572.318 266.438 568.844 263.004 568.844 258.764C568.844 254.524 572.318 251.09 572.318 251.09C572.318 251.09 575.792 254.53 575.792 258.764Z" fill="#12279E"/>
<path d="M573.848 276.363C570.567 279.413 565.399 279.733 565.399 279.733C565.399 279.733 565.556 275.103 568.837 272.059C572.118 269.015 577.286 268.689 577.286 268.689C577.286 268.689 577.128 273.312 573.848 276.363Z" fill="#12279E"/>
<path d="M574.169 291.519C570.888 294.57 565.721 294.889 565.721 294.889C565.721 294.889 565.878 290.259 569.159 287.215C572.439 284.171 577.579 283.839 577.579 283.839C577.579 283.839 577.45 288.462 574.169 291.519Z" fill="#12279E"/>
<path d="M556.378 299.852C559.481 303.05 559.373 307.68 559.373 307.68C559.373 307.68 554.234 307.123 551.132 303.926C548.03 300.728 548.137 296.098 548.137 296.098C548.137 296.098 553.276 296.655 556.378 299.852Z" fill="#12279E"/>
<path d="M559.259 267.538C563.205 269.878 564.484 274.368 564.484 274.368C564.484 274.368 559.359 275.058 555.421 272.743C551.482 270.428 550.195 265.913 550.195 265.913C550.195 265.913 555.313 265.197 559.259 267.538Z" fill="#12279E"/>
<path opacity="0.1" d="M559.259 267.538C563.205 269.878 564.484 274.368 564.484 274.368C564.484 274.368 559.359 275.058 555.421 272.743C551.482 270.428 550.195 265.913 550.195 265.913C550.195 265.913 555.313 265.197 559.259 267.538Z" fill="black"/>
<path d="M578.572 265.6C578.572 265.6 566.064 287.567 576.256 299.583C586.449 311.6 575.327 344.349 575.327 344.349" stroke="#6C63FF" stroke-miterlimit="10"/>
<path d="M574.87 258.764C574.87 262.997 578.344 266.438 578.344 266.438C578.344 266.438 581.817 263.004 581.817 258.764C581.817 254.524 578.344 251.09 578.344 251.09C578.344 251.09 574.87 254.53 574.87 258.764Z" fill="#12279E"/>
<path opacity="0.1" d="M574.87 258.764C574.87 262.997 578.344 266.438 578.344 266.438C578.344 266.438 581.817 263.004 581.817 258.764C581.817 254.524 578.344 251.09 578.344 251.09C578.344 251.09 574.87 254.53 574.87 258.764Z" fill="black"/>
<path d="M575.87 276.689C572.547 279.707 572.297 284.363 572.297 284.363C572.297 284.363 577.464 284.101 580.788 281.082C584.112 278.064 584.362 273.408 584.362 273.408C584.362 273.408 579.187 273.67 575.87 276.689Z" fill="#12279E"/>
<path opacity="0.1" d="M575.87 276.689C572.547 279.707 572.297 284.363 572.297 284.363C572.297 284.363 577.464 284.101 580.788 281.082C584.112 278.064 584.362 273.408 584.362 273.408C584.362 273.408 579.187 273.67 575.87 276.689Z" fill="black"/>
<path d="M582.382 297.684C579.058 300.702 578.808 305.358 578.808 305.358C578.808 305.358 583.976 305.096 587.3 302.077C590.623 299.059 590.874 294.403 590.874 294.403C590.874 294.403 585.706 294.653 582.382 297.684Z" fill="#12279E"/>
<path d="M572.797 293.06C572.797 293.06 580.323 282.445 590.895 282.189" stroke="#6C63FF" stroke-miterlimit="10"/>
<path d="M566.936 286.646C566.936 286.646 559.409 276.03 548.837 275.774" stroke="#6C63FF" stroke-miterlimit="10"/>
<path d="M565.956 301.802C565.956 301.802 573.483 291.186 584.055 290.931" stroke="#6C63FF" stroke-miterlimit="10"/>
<path d="M590.545 283.877C591.623 283.877 592.496 283.095 592.496 282.131C592.496 281.167 591.623 280.385 590.545 280.385C589.467 280.385 588.594 281.167 588.594 282.131C588.594 283.095 589.467 283.877 590.545 283.877Z" fill="#12279E"/>
<path d="M549.016 277.61C550.094 277.61 550.967 276.828 550.967 275.864C550.967 274.9 550.094 274.118 549.016 274.118C547.938 274.118 547.065 274.9 547.065 275.864C547.065 276.828 547.938 277.61 549.016 277.61Z" fill="#12279E"/>
<path d="M571.496 305.301C571.496 305.301 563.969 294.685 553.398 294.429" stroke="#6C63FF" stroke-miterlimit="10"/>
<path d="M553.576 296.264C554.654 296.264 555.528 295.483 555.528 294.518C555.528 293.554 554.654 292.772 553.576 292.772C552.499 292.772 551.625 293.554 551.625 294.518C551.625 295.483 552.499 296.264 553.576 296.264Z" fill="#12279E"/>
<path d="M584.198 292.766C585.275 292.766 586.149 291.984 586.149 291.02C586.149 290.056 585.275 289.274 584.198 289.274C583.12 289.274 582.246 290.056 582.246 291.02C582.246 291.984 583.12 292.766 584.198 292.766Z" fill="#12279E"/>
<path d="M613.111 331.578C613.111 331.578 594.969 328.329 590.13 324C585.291 319.67 563.519 312.118 561.103 317.509C558.687 322.9 528.445 341.337 548.987 344.579C569.53 347.821 597.371 348.909 603.418 346.741C609.465 344.573 613.111 331.578 613.111 331.578Z" fill="#A8A8A8"/>
<path opacity="0.2" d="M548.987 342.571C569.552 345.82 597.371 346.9 603.418 344.733C608.021 343.083 611.223 335.14 612.489 331.482L613.096 331.597C613.096 331.597 609.465 344.585 603.418 346.747C597.371 348.908 569.552 347.828 548.987 344.585C543.055 343.645 541.354 341.445 541.997 338.664C542.519 340.473 544.584 341.874 548.987 342.571Z" fill="black"/>
<path d="M80.999 385.719C80.999 385.719 86.9888 392.753 78.2328 403.305C69.4767 413.857 62.2574 422.816 65.1809 429.422C65.1809 429.422 78.39 409.77 89.1403 409.495C99.8906 409.22 92.8215 397.537 80.999 385.719Z" fill="#12279E"/>
<path opacity="0.1" d="M80.999 385.719C81.521 386.396 81.9325 387.137 82.2213 387.918C92.7143 398.944 98.2967 409.233 88.2183 409.495C78.8261 409.738 67.5611 424.76 64.8593 428.559C64.9484 428.852 65.0558 429.14 65.1809 429.422C65.1809 429.422 78.3901 409.77 89.1404 409.495C99.8907 409.22 92.8215 397.537 80.999 385.719Z" fill="black"/>
<path d="M92.1353 394.646C92.1353 397.114 91.8279 399.123 91.4205 399.123C91.013 399.123 90.7057 397.121 90.7057 394.646C90.7057 392.171 91.0917 393.367 91.4705 393.367C91.8493 393.367 92.1353 392.184 92.1353 394.646Z" fill="#FFD037"/>
<path d="M95.9522 397.594C93.5291 398.777 91.4205 399.513 91.2418 399.187C91.0631 398.86 92.8715 397.684 95.2946 396.507C97.7177 395.33 96.7599 396.187 96.9457 396.507C97.1316 396.827 98.3753 396.411 95.9522 397.594Z" fill="#FFD037"/>
<path d="M49.3556 385.719C49.3556 385.719 43.3658 392.753 52.1218 403.305C60.8779 413.857 68.0972 422.816 65.1737 429.416C65.1737 429.416 51.9646 409.764 41.2143 409.489C30.464 409.214 37.5332 397.537 49.3556 385.719Z" fill="#12279E"/>
<path opacity="0.1" d="M49.3556 385.719C48.8337 386.396 48.4221 387.137 48.1334 387.918C37.6404 398.944 32.0579 409.233 42.1363 409.495C51.5286 409.738 62.7935 424.76 65.4954 428.559C65.4062 428.852 65.2989 429.14 65.1737 429.422C65.1737 429.422 51.9646 409.77 41.2143 409.495C30.464 409.22 37.5332 397.537 49.3556 385.719Z" fill="black"/>
<path d="M38.2194 394.646C38.2194 397.114 38.5267 399.123 38.9341 399.123C39.3416 399.123 39.6489 397.121 39.6489 394.646C39.6489 392.171 39.2629 393.367 38.8841 393.367C38.5053 393.367 38.2194 392.184 38.2194 394.646Z" fill="#FFD037"/>
<path d="M34.4024 397.594C36.8255 398.777 38.9341 399.513 39.1128 399.187C39.2915 398.86 37.4831 397.684 35.06 396.507C32.6369 395.33 33.5947 396.187 33.4089 396.507C33.223 396.827 31.9793 396.411 34.4024 397.594Z" fill="#FFD037"/>
<path d="M40.1278 428.495C40.1278 428.495 56.8751 428.035 61.9215 424.818C66.9678 421.601 87.6536 417.783 88.933 422.899C90.2125 428.015 114.1 448.55 95.1945 448.684C76.2886 448.819 51.2641 446.05 46.2249 443.306C41.1857 440.563 40.1278 428.495 40.1278 428.495Z" fill="#A8A8A8"/>
<path opacity="0.2" d="M95.5376 446.913C76.6317 447.047 51.6072 444.278 46.568 441.535C42.7296 439.444 41.2 431.942 40.6925 428.482H40.1349C40.1349 428.482 41.1928 440.569 46.232 443.313C51.2712 446.056 76.2957 448.832 95.2017 448.691C100.663 448.652 102.542 446.913 102.442 444.342C101.678 445.915 99.5976 446.881 95.5376 446.913Z" fill="black"/>
</g>
<defs>
<linearGradient id="paint0_linear_19_189" x1="362.172" y1="381.753" x2="362.172" y2="154.997" gradientUnits="userSpaceOnUse">
<stop stop-color="#808080" stop-opacity="0.25"/>
<stop offset="0.54" stop-color="#808080" stop-opacity="0.12"/>
<stop offset="1" stop-color="#808080" stop-opacity="0.1"/>
</linearGradient>
<linearGradient id="paint1_linear_19_189" x1="416.716" y1="324.254" x2="456.431" y2="159.396" gradientUnits="userSpaceOnUse">
<stop stop-color="#808080" stop-opacity="0.25"/>
<stop offset="0.54" stop-color="#808080" stop-opacity="0.12"/>
<stop offset="1" stop-color="#808080" stop-opacity="0.1"/>
</linearGradient>
<linearGradient id="paint2_linear_19_189" x1="166.33" y1="456.499" x2="166.33" y2="99.0084" gradientUnits="userSpaceOnUse">
<stop stop-color="#808080" stop-opacity="0.25"/>
<stop offset="0.54" stop-color="#808080" stop-opacity="0.12"/>
<stop offset="1" stop-color="#808080" stop-opacity="0.1"/>
</linearGradient>
<clipPath id="clip0_19_189">
<rect width="732" height="502" fill="white"/>
</clipPath>
</defs>
</svg>
