<svg width="639" height="468" viewBox="0 0 639 468" fill="none" xmlns="http://www.w3.org/2000/svg">
<g clip-path="url(#clip0_30_335)">
<path d="M307.845 173.954C311.34 170.26 317.113 171.339 320.953 173.947C325.896 177.302 327.31 183.43 328.039 188.862C329.273 198.058 329.638 211.057 340.506 214.901C345.528 216.677 351.276 215.21 355.517 212.326C360.149 209.176 363.039 204.33 364.974 199.308C367.317 193.227 368.674 186.723 369.824 180.351C370.999 173.834 371.77 167.248 372.116 160.643C372.455 154.181 372.234 147.761 371.966 141.303C371.757 136.261 371.678 130.966 373.453 126.145C375.245 121.276 379.414 117.572 384.895 117.083C390.214 116.609 395.694 118.762 399.542 122.236C408.778 130.571 409.212 144.179 411.276 155.355C412.361 161.227 413.946 167.168 417.269 172.277C420.002 176.479 423.801 180.001 428.176 182.614C437 187.885 448.245 189.424 458.037 185.802C467.597 182.267 475.293 174.538 478.623 165.248C479.445 162.954 479.953 160.584 480.21 158.173C480.33 157.052 478.503 157.06 478.384 158.173C477.289 168.421 470.433 177.701 461.038 182.562C451.371 187.563 439.665 186.929 430.22 181.744C425.577 179.195 421.538 175.6 418.731 171.215C415.328 165.898 413.87 159.701 412.81 153.616C410.895 142.625 410.026 130.007 401.442 121.568C394.784 115.024 382.533 112.397 375.377 119.687C368.01 127.193 370.218 139.284 370.453 148.602C370.798 162.248 369.332 175.926 366.081 189.215C364.666 195 363.039 200.965 359.488 205.925C356.243 210.459 350.939 213.972 345.032 213.916C339.143 213.86 335.004 209.707 332.913 204.755C330.707 199.531 330.563 193.889 329.799 188.374C329.098 183.312 327.822 177.71 323.865 174.005C320.788 171.124 316.224 169.269 311.893 169.932C309.812 170.25 307.967 171.22 306.553 172.714C305.765 173.548 307.053 174.791 307.845 173.954Z" fill="#1429A0"/>
<path d="M571.857 361.35C570.828 359.686 566.38 361.468 565.562 359.958C564.747 358.453 568.88 356.161 571.242 350.925C571.667 349.981 574.351 344.03 572.364 342.194C568.599 338.714 551.368 353.076 545.338 348.376C544.015 347.345 543.09 345.285 539.085 341.942C537.492 340.612 536.528 340.012 535.596 340.235C534.273 340.552 534.168 342.251 532.749 345.592C530.621 350.602 529.363 350.299 528.123 354.296C527.203 357.264 527.413 358.989 526.33 359.325C524.798 359.801 523.387 356.653 521.445 356.935C519.463 357.223 518.265 360.887 517.887 363.631C517.177 368.78 519.147 372.177 520.24 375.75C521.427 379.632 522.131 385.536 519.39 393.895L492.258 467.241C498.248 452.191 515.592 410.933 522.879 395.602C524.983 391.176 527.306 386.687 532.076 384.915C536.668 383.209 542.974 384.227 551.014 382.369C551.953 382.152 554.559 381.516 554.887 380.045C555.158 378.83 553.626 378.151 553.861 377.012C554.177 375.485 557.191 375.466 560.895 373.704C563.507 372.462 565.134 370.984 566.533 369.713C566.955 369.33 573.225 363.565 571.857 361.35Z" fill="#F2F2F2"/>
<path d="M465.113 399.963C463.965 399.967 463.593 402.576 462.585 402.525C461.58 402.475 461.6 399.867 459.603 397.244C459.243 396.771 456.973 393.791 455.461 394.196C452.594 394.965 454.969 407.224 450.825 408.707C449.915 409.033 448.595 408.874 445.73 409.796C444.589 410.162 444.004 410.443 443.85 410.946C443.63 411.661 444.469 412.2 445.768 413.832C447.717 416.28 447.199 416.785 448.886 418.522C450.139 419.812 451.082 420.211 450.941 420.818C450.742 421.676 448.725 421.433 448.309 422.428C447.884 423.445 449.413 425.066 450.708 426.036C453.136 427.856 455.443 427.908 457.586 428.425C459.914 428.986 463.138 430.358 466.622 434.06L496.313 468C490.342 460.837 474.242 440.765 468.502 432.91C466.845 430.642 465.219 428.253 465.689 425.495C466.141 422.841 468.482 420.165 469.851 415.842C470.011 415.337 470.437 413.927 469.78 413.348C469.236 412.869 468.447 413.395 467.932 412.956C467.242 412.367 468.102 410.942 468.27 408.689C468.388 407.101 468.101 405.908 467.855 404.882C467.781 404.573 466.641 399.957 465.113 399.963Z" fill="#F2F2F2"/>
<path d="M488.009 404.894L487.318 398.972L487.634 398.523C489.095 396.446 489.841 394.419 489.85 392.494C489.851 392.188 489.836 391.882 489.821 391.571C489.762 390.335 489.687 388.799 490.522 387.009C490.99 386.011 492.304 383.701 494.28 383.987C494.812 384.058 495.214 384.293 495.52 384.567C495.565 384.498 495.611 384.43 495.66 384.355C496.275 383.455 496.763 383.069 497.232 382.697C497.593 382.411 497.965 382.116 498.55 381.419C498.806 381.113 499.006 380.844 499.174 380.618C499.685 379.934 500.353 379.119 501.53 379.134C502.788 379.191 503.446 380.189 503.883 380.849C504.662 382.028 505.016 382.877 505.25 383.44C505.335 383.646 505.431 383.878 505.481 383.949C505.886 384.521 509.181 383.987 510.422 383.792C513.21 383.346 515.623 382.96 516.617 384.647C517.33 385.854 516.8 387.45 514.997 389.517C514.435 390.161 513.838 390.65 513.307 391.033C513.747 391.285 514.14 391.671 514.3 392.277C514.675 393.712 513.389 395.151 510.479 396.558C509.756 396.91 508.783 397.379 507.419 397.605C506.777 397.71 506.199 397.736 505.704 397.75C505.694 398.025 505.627 398.322 505.452 398.628C504.941 399.529 503.877 399.958 502.274 399.855C500.509 399.767 499.056 399.443 497.775 399.16C496.655 398.914 495.691 398.706 494.934 398.754C493.53 398.863 492.449 399.941 491.179 401.339L488.009 404.894Z" fill="#F2F2F2"/>
<path d="M491.217 369.631L485.421 371.775L484.889 371.596C482.425 370.766 480.192 370.589 478.249 371.068C477.94 371.145 477.636 371.236 477.325 371.329C476.095 371.698 474.565 372.156 472.549 371.836C471.424 371.655 468.761 371.021 468.548 369.115C468.486 368.603 468.62 368.17 468.819 367.817C468.739 367.792 468.658 367.767 468.57 367.74C467.506 367.397 466.993 367.043 466.499 366.702C466.12 366.44 465.728 366.168 464.876 365.803C464.503 365.643 464.181 365.526 463.911 365.427C463.092 365.126 462.101 364.713 461.817 363.617C461.556 362.435 462.395 361.57 462.95 360.998C463.94 359.975 464.707 359.432 465.215 359.072C465.401 358.941 465.61 358.792 465.67 358.729C466.144 358.207 464.769 355.285 464.258 354.182C463.101 351.707 462.1 349.566 463.549 348.216C464.585 347.248 466.327 347.335 468.869 348.484C469.66 348.842 470.305 349.273 470.826 349.668C470.968 349.196 471.258 348.733 471.828 348.431C473.18 347.718 474.957 348.547 477.113 350.892C477.651 351.473 478.371 352.257 478.945 353.466C479.214 354.035 479.387 354.565 479.527 355.02C479.806 354.961 480.123 354.947 480.476 355.032C481.513 355.277 482.216 356.156 482.519 357.67C482.877 359.331 482.92 360.761 482.959 362.022C482.995 363.123 483.029 364.071 483.27 364.762C483.736 366.037 485.097 366.768 486.829 367.591L491.217 369.631Z" fill="#F2F2F2"/>
<path d="M488.009 352.184L487.318 346.261L487.634 345.812C489.095 343.736 489.841 341.708 489.85 339.784C489.851 339.478 489.836 339.172 489.821 338.86C489.762 337.625 489.687 336.089 490.522 334.299C490.99 333.301 492.304 330.99 494.28 331.276C494.812 331.348 495.214 331.582 495.52 331.857C495.565 331.788 495.611 331.719 495.66 331.645C496.275 330.744 496.763 330.358 497.232 329.986C497.593 329.7 497.965 329.406 498.55 328.708C498.806 328.402 499.006 328.133 499.174 327.907C499.685 327.224 500.353 326.409 501.53 326.423C502.788 326.48 503.446 327.478 503.883 328.139C504.662 329.317 505.016 330.167 505.25 330.73C505.335 330.936 505.431 331.167 505.481 331.239C505.886 331.811 509.181 331.276 510.422 331.082C513.21 330.635 515.623 330.249 516.617 331.937C517.33 333.143 516.8 334.739 514.997 336.807C514.435 337.45 513.838 337.939 513.307 338.322C513.747 338.574 514.14 338.96 514.3 339.566C514.675 341.002 513.389 342.44 510.479 343.847C509.756 344.199 508.783 344.668 507.419 344.894C506.777 345 506.199 345.026 505.704 345.04C505.694 345.315 505.627 345.612 505.452 345.918C504.941 346.819 503.877 347.248 502.274 347.145C500.509 347.056 499.056 346.733 497.775 346.45C496.655 346.204 495.691 345.995 494.934 346.044C493.53 346.152 492.449 347.231 491.179 348.629L488.009 352.184Z" fill="#F2F2F2"/>
<path d="M494.325 467.144L493.031 466.367L491.523 466.532C491.499 466.398 491.417 466.089 491.294 465.606C490.619 462.958 488.561 454.899 486.844 442.208C485.646 433.348 484.968 424.24 484.828 415.132C484.687 406.009 485.138 399.103 485.498 393.552C485.771 389.366 486.102 385.379 486.427 381.496C487.291 371.121 488.106 361.32 487.5 350.471C487.365 348.048 487.084 343.007 484.014 337.642C482.233 334.531 479.78 331.768 476.722 329.434L478.624 327.141C481.999 329.72 484.713 332.78 486.69 336.235C490.094 342.183 490.401 347.677 490.549 350.316C491.166 361.358 490.341 371.252 489.468 381.727C489.146 385.597 488.815 389.566 488.544 393.735C488.187 399.235 487.741 406.081 487.88 415.086C488.017 424.086 488.687 433.082 489.869 441.83C491.565 454.361 493.593 462.3 494.259 464.908C494.614 466.301 494.688 466.592 494.325 467.144Z" fill="#F2F2F2"/>
<path d="M471.125 334.087C470.999 334.087 470.873 334.084 470.745 334.076C468.146 333.941 465.739 332.449 463.59 329.64C462.583 328.319 462.067 326.812 461.039 323.807C460.879 323.343 460.104 320.993 459.633 317.758C459.325 315.645 459.364 314.761 459.8 313.981C460.285 313.111 461.069 312.505 461.951 312.096C461.912 311.816 461.943 311.527 462.07 311.232C462.59 310.011 463.973 310.171 464.721 310.249C465.1 310.294 465.572 310.354 466.082 310.329C466.883 310.292 467.314 310.063 467.967 309.72C468.591 309.391 469.368 308.982 470.52 308.756C472.791 308.301 474.694 308.919 475.321 309.122C478.622 310.177 480.249 312.639 482.133 315.49C482.509 316.062 483.798 318.144 484.649 320.998C485.263 323.057 485.176 323.972 484.991 324.653C484.616 326.051 483.729 326.852 481.477 328.619C479.126 330.47 477.945 331.396 476.932 331.96C474.573 333.267 473.092 334.087 471.125 334.087Z" fill="#F2F2F2"/>
<path d="M406.551 102.057H364.873C363.822 102.057 362.967 101.237 362.967 100.229C362.967 99.2206 363.822 98.4006 364.873 98.4006H406.551C407.601 98.4006 408.456 99.2206 408.456 100.229C408.456 101.237 407.601 102.057 406.551 102.057Z" fill="#E6E6E6"/>
<path d="M471.1 208.397H429.422C428.371 208.397 427.516 207.576 427.516 206.568C427.516 205.56 428.371 204.74 429.422 204.74H471.1C472.15 204.74 473.005 205.56 473.005 206.568C473.005 207.576 472.15 208.397 471.1 208.397Z" fill="#E6E6E6"/>
<path d="M505.201 280.848H463.523C462.473 280.848 461.618 280.027 461.618 279.019C461.618 278.011 462.473 277.191 463.523 277.191H505.201C506.252 277.191 507.106 278.011 507.106 279.019C507.106 280.027 506.252 280.848 505.201 280.848Z" fill="#E6E6E6"/>
<path d="M315.207 62.326H273.53C272.479 62.326 271.624 61.5057 271.624 60.4975C271.624 59.4894 272.479 58.6694 273.53 58.6694H315.207C316.258 58.6694 317.113 59.4894 317.113 60.4975C317.113 61.5057 316.258 62.326 315.207 62.326Z" fill="#E6E6E6"/>
<path d="M0 465.784C0 466.555 0.645528 467.174 1.44938 467.174H637.551C638.354 467.174 639 466.555 639 465.784C639 465.012 638.354 464.393 637.551 464.393H1.44938C0.645528 464.393 0 465.012 0 465.784Z" fill="#CCCCCC"/>
<path d="M483.812 259.631H294.914C294.241 259.631 293.696 259.108 293.696 258.463V85.5152C293.696 84.8693 294.241 84.3467 294.914 84.3467C295.587 84.3467 296.132 84.8693 296.132 85.5152V156.083C296.132 211.98 343.359 257.294 401.617 257.294H483.812C484.484 257.294 485.03 257.817 485.03 258.463C485.03 259.109 484.484 259.631 483.812 259.631Z" fill="#E6E6E6"/>
<path d="M334.694 190.124H293.016C291.966 190.124 291.111 189.304 291.111 188.296C291.111 187.288 291.966 186.468 293.016 186.468H334.694C335.745 186.468 336.599 187.288 336.599 188.296C336.599 189.304 335.745 190.124 334.694 190.124Z" fill="#E6E6E6"/>
<path d="M293.369 195.328C299.979 193.233 304.211 188.263 302.821 184.227C301.431 180.191 294.947 178.618 288.335 180.715C285.682 181.517 283.267 182.917 281.294 184.799L253.405 194.012L258.19 206.477L285.176 196.071C287.93 196.455 290.739 196.2 293.369 195.328Z" fill="#FFB6B6"/>
<path d="M150.006 266.771C150.232 273.446 154.005 278.745 158.432 278.607C162.86 278.468 166.265 272.945 166.038 266.267C165.986 263.599 165.268 260.981 163.945 258.633L162.617 230.36L148.802 231.241L151.579 259.019C150.417 261.445 149.878 264.103 150.006 266.771Z" fill="#FFB6B6"/>
<path d="M181.899 457.273L194.23 457.272L197.389 411.335L181.896 411.638L181.899 457.273Z" fill="#FFB6B6"/>
<path d="M224.145 457.005C224.529 457.625 224.732 459.627 224.732 460.349C224.732 462.567 222.858 464.364 220.547 464.364H182.36C180.783 464.364 179.505 463.138 179.505 461.625V460.1C179.505 460.1 177.616 455.515 181.505 449.864C181.505 449.864 186.339 454.289 193.562 447.358L195.692 443.656L211.11 454.475L219.656 455.485C221.526 455.705 223.184 455.45 224.145 457.005Z" fill="#2F2E41"/>
<path d="M211.129 457.273L223.459 457.272L226.619 411.335L211.126 411.638L211.129 457.273Z" fill="#FFB6B6"/>
<path d="M253.375 457.005C253.759 457.625 253.962 459.627 253.962 460.349C253.962 462.567 252.088 464.364 249.776 464.364H211.59C210.013 464.364 208.735 463.138 208.735 461.625V460.1C208.735 460.1 206.846 455.515 210.735 449.864C210.735 449.864 215.569 454.289 222.792 447.358L224.922 443.656L240.34 454.475L248.886 455.485C250.755 455.705 252.413 455.45 253.375 457.005Z" fill="#2F2E41"/>
<path d="M189.074 115.121C199.092 115.121 207.213 107.329 207.213 97.7173C207.213 88.1055 199.092 80.3136 189.074 80.3136C179.056 80.3136 170.936 88.1055 170.936 97.7173C170.936 107.329 179.056 115.121 189.074 115.121Z" fill="#FFB6B6"/>
<path d="M163.977 242.477L172.502 359.334L177.374 437.628L200.514 436.459L198.078 351.154L202.95 298.568L210.258 436.459H228.675L235.834 243.646L196.252 238.387L163.977 242.477Z" fill="#2F2E41"/>
<path d="M195.643 111.598C190.484 116.363 178.561 113.203 172.502 111.598C169.167 110.714 167.155 109.804 166.413 108.092C165.897 106.903 166.19 105.775 165.195 103.418C164.612 102.038 164.304 101.935 163.977 101.081C163.064 98.7014 164.332 96.5814 165.195 94.0695C166.995 88.8282 164.846 88.2397 166.413 84.721C168.769 79.4311 175.177 77.2788 177.374 76.541C181.476 75.1635 184.896 75.3091 185.899 75.3725C192.324 75.7783 196.62 78.9417 198.078 80.0467C201.035 82.2869 202.485 84.6564 205.386 89.3953C207.91 93.5191 208.094 95.1016 207.822 96.4067C207.407 98.3953 206.212 98.4027 205.386 101.081C204.449 104.121 205.515 105.649 204.168 106.924C203.258 107.785 202.412 107.427 200.514 108.092C197.903 109.008 196.614 110.701 195.643 111.598Z" fill="#2F2E41"/>
<path d="M210.258 129.127C210.258 129.127 191.989 106.924 168.849 115.104L161.354 129.127L158.85 131.401C148.347 140.94 143.46 154.858 145.806 168.551L156.67 231.96C156.67 231.96 155.452 256.5 163.977 263.512C163.977 263.512 176.156 241.309 205.386 251.826C234.616 262.343 240.705 256.5 240.705 256.5L230.962 189.892L210.258 129.127Z" fill="#2F2E41"/>
<path d="M204.168 132.632L198.078 145.486L221.219 220.275L284.55 198.072L276.024 184.049L245.577 192.229C245.577 192.229 222.437 126.789 204.168 132.632Z" fill="#2F2E41"/>
<path d="M160.932 250.073H147.535L145.099 156.588L160.932 188.139V250.073Z" fill="#2F2E41"/>
<path d="M307.69 178.791C310.717 178.791 313.171 176.436 313.171 173.532C313.171 170.628 310.717 168.273 307.69 168.273C304.663 168.273 302.209 170.628 302.209 173.532C302.209 176.436 304.663 178.791 307.69 178.791Z" fill="#3F3D56"/>
<path d="M344.227 219.69C347.254 219.69 349.708 217.336 349.708 214.432C349.708 211.528 347.254 209.173 344.227 209.173C341.201 209.173 338.747 211.528 338.747 214.432C338.747 217.336 341.201 219.69 344.227 219.69Z" fill="#3F3D56"/>
<path d="M385.636 121.531C388.663 121.531 391.117 119.176 391.117 116.272C391.117 113.368 388.663 111.014 385.636 111.014C382.61 111.014 380.156 113.368 380.156 116.272C380.156 119.176 382.61 121.531 385.636 121.531Z" fill="#3F3D56"/>
<path d="M446.532 191.645C449.558 191.645 452.012 189.29 452.012 186.386C452.012 183.482 449.558 181.128 446.532 181.128C443.505 181.128 441.051 183.482 441.051 186.386C441.051 189.29 443.505 191.645 446.532 191.645Z" fill="#3F3D56"/>
<path d="M481.851 163.599C484.878 163.599 487.332 161.245 487.332 158.341C487.332 155.436 484.878 153.082 481.851 153.082C478.824 153.082 476.37 155.436 476.37 158.341C476.37 161.245 478.824 163.599 481.851 163.599Z" fill="#3F3D56"/>
<path d="M471.41 46.7706L481.433 51.3263C477.322 45.8214 473.78 37.224 471.883 30.3827C468.672 36.7554 463.496 44.5528 458.372 49.2105L468.965 46.5957C462.438 77.2915 437.886 99.328 409.77 99.328L409.372 100.437C438.739 100.437 464.745 78.7057 471.41 46.7706Z" fill="#3F3D56"/>
<path d="M441.109 0H504.441C507.127 0 509.312 2.09691 509.312 4.67426C509.312 7.25161 507.127 9.34852 504.441 9.34852H441.109C438.423 9.34852 436.238 7.25161 436.238 4.67426C436.238 2.09691 438.423 0 441.109 0Z" fill="#1429A0"/>
<path d="M483.895 269.196C483.227 269.196 482.553 269.053 481.912 268.764C480.329 268.051 479.335 266.625 479.254 264.949L478.598 251.364C478.514 249.619 479.463 248.032 481.075 247.222C482.688 246.412 484.588 246.569 486.034 247.629L495.677 254.705C496.837 255.555 497.499 256.847 497.495 258.246C497.49 259.647 496.82 260.933 495.655 261.778L486.668 268.288C485.838 268.889 484.873 269.196 483.895 269.196Z" fill="#E6E6E6"/>
<path d="M306.115 86.6481C306.115 87.2888 305.966 87.9353 305.665 88.551C304.922 90.0693 303.435 91.0228 301.689 91.1004L287.53 91.7303C285.711 91.8113 284.058 90.9007 283.214 89.3532C282.369 87.8064 282.533 85.9828 283.637 84.5957L291.012 75.343C291.898 74.2303 293.245 73.5947 294.703 73.5993C296.163 73.6033 297.504 74.2469 298.384 75.3647L305.169 83.9874C305.795 84.7834 306.115 85.7094 306.115 86.6481Z" fill="#E6E6E6"/>
<path d="M385.187 74.6161C377.976 72.9589 370.273 74.4588 364.109 78.3653C357.646 82.4618 353.367 89.0215 351.918 96.2887C348.93 111.282 358.06 126.259 372.489 132.227C387.657 138.5 405.701 134.29 416.717 122.648C422.176 116.877 425.588 109.577 426.616 101.856C427.628 94.2509 426.474 85.4761 421.674 79.1285C416.913 72.8323 408.985 70.7194 401.329 69.6876C393.9 68.6864 384.044 68.2513 380.027 75.7959C379.262 77.2344 378.902 78.7846 378.986 80.3979C379.045 81.5204 380.873 81.5272 380.813 80.3979C380.628 76.8704 383.079 73.9228 386.221 72.3374C389.862 70.4999 394.253 70.6555 398.224 71.0651C405.393 71.8044 413.532 73.1234 418.702 78.4062C423.852 83.6687 425.396 91.6882 425.076 98.6736C424.742 105.965 422.124 113.141 417.536 118.973C408.483 130.48 392.643 135.955 378.07 132.237C363.871 128.615 363.686 120.53 363.92 106.212C364.045 98.574 356.525 86.5511 362.665 81.5734C368.676 76.7 377.008 74.5382 384.701 76.3063C385.844 76.569 386.331 74.8792 385.187 74.6161Z" fill="#1429A0"/>
</g>
<defs>
<clipPath id="clip0_30_335">
<rect width="639" height="468" fill="white"/>
</clipPath>
</defs>
</svg>
