<svg width="706" height="430" viewBox="0 0 706 430" fill="none" xmlns="http://www.w3.org/2000/svg">
<g clip-path="url(#clip0_30_297)">
<path d="M34.5832 396.417C34.8787 407.328 36.7261 418.144 40.071 428.546C40.1452 428.787 40.2275 429.025 40.3076 429.266H60.7853C60.7638 429.05 60.7415 428.808 60.72 428.546C59.3547 413.014 67.1549 319.613 76.5672 303.447C75.7426 304.758 32.9954 347.066 34.5832 396.417Z" fill="#F1F1F1"/>
<path d="M36.1198 428.546C36.2911 428.787 36.4691 429.028 36.6515 429.266H52.0145C51.898 429.061 51.7631 428.819 51.6066 428.546C49.0688 424.014 41.5572 410.464 34.5847 396.417C27.0946 381.321 20.217 365.653 20.7962 359.983C20.6168 361.261 15.4315 400.25 36.1198 428.546Z" fill="#F1F1F1"/>
<path d="M482.995 88.478C483.581 89.9124 484.478 91.2022 485.623 92.2565C486.767 93.3108 488.131 94.1041 489.619 94.5803C491.106 95.0566 492.682 95.2043 494.233 95.0131C495.785 94.8219 497.275 94.2963 498.599 93.4735L528.248 117.006L530.084 97.5469L501.647 78.1835C500.103 76.074 497.83 74.5984 495.259 74.0363C492.689 73.4742 489.999 73.8645 487.7 75.1335C485.401 76.4024 483.652 78.4617 482.785 80.9212C481.918 83.3807 481.993 86.0694 482.995 88.478Z" fill="#9F616A"/>
<path d="M528.911 95.7198L517.845 87.9834L505.293 102.333L519.894 110.895L528.911 95.7198Z" fill="#12279E"/>
<path d="M526.487 90.473L563.779 104.671L599.68 81.4116C603.39 79.0077 607.857 78.022 612.248 78.6385C616.638 79.255 620.652 81.4316 623.54 84.7619C626.428 88.0922 627.992 92.3486 627.94 96.7363C627.888 101.124 626.224 105.343 623.259 108.606L622.938 108.959L567.723 138.25L507.412 110.988L526.487 90.473Z" fill="#3F3D56"/>
<path d="M515.973 427.799H127.376L141.467 155.563H202.278L258.353 194.454H530.063L515.973 427.799Z" fill="#E5E5E5"/>
<path d="M420.848 344.78L196.244 253.256C195.459 252.935 194.835 252.319 194.508 251.543C194.181 250.767 194.179 249.894 194.502 249.117L296.274 4.59521C296.598 3.81826 297.221 3.20038 298.005 2.87709C298.789 2.5538 299.671 2.55152 300.457 2.87075L525.061 94.3948C525.846 94.7159 526.47 95.3319 526.797 96.1079C527.124 96.8839 527.126 97.7565 526.804 98.5342L425.031 343.055C424.707 343.832 424.084 344.45 423.3 344.774C422.516 345.097 421.634 345.099 420.848 344.78Z" fill="white"/>
<path d="M420.848 344.78L196.244 253.256C195.459 252.935 194.835 252.319 194.508 251.543C194.181 250.767 194.179 249.894 194.502 249.117L296.274 4.59521C296.598 3.81826 297.221 3.20038 298.005 2.87709C298.789 2.5538 299.671 2.55152 300.457 2.87075L525.061 94.3948C525.846 94.7159 526.47 95.3319 526.797 96.1079C527.124 96.8839 527.126 97.7565 526.804 98.5342L425.031 343.055C424.707 343.832 424.084 344.45 423.3 344.774C422.516 345.097 421.634 345.099 420.848 344.78ZM299.969 4.04352C299.497 3.85195 298.968 3.8533 298.498 4.04728C298.027 4.24126 297.654 4.61201 297.459 5.0782L195.687 249.599C195.493 250.066 195.495 250.59 195.691 251.055C195.887 251.521 196.261 251.891 196.732 252.083L421.336 343.607C421.808 343.799 422.337 343.797 422.807 343.603C423.278 343.409 423.651 343.039 423.846 342.573L525.618 98.0512C525.812 97.5846 525.811 97.0611 525.615 96.5955C525.418 96.1298 525.044 95.7602 524.573 95.5676L299.969 4.04352Z" fill="#3F3D56"/>
<path d="M363.405 123.912L307.699 101.212C306.914 100.891 306.289 100.275 305.963 99.4993C305.636 98.7233 305.634 97.8507 305.956 97.0731L328.898 41.9532C329.222 41.1762 329.845 40.5583 330.629 40.235C331.413 39.9117 332.295 39.9095 333.081 40.2287L388.787 62.9286C389.573 63.2496 390.197 63.8657 390.524 64.6417C390.851 65.4177 390.853 66.2903 390.53 67.068L367.589 122.188C367.264 122.965 366.642 123.583 365.857 123.906C365.073 124.229 364.191 124.232 363.405 123.912ZM332.593 41.4014C332.121 41.2099 331.592 41.2112 331.122 41.4052C330.651 41.5992 330.277 41.9699 330.083 42.4361L307.141 97.556C306.948 98.0227 306.949 98.5462 307.145 99.0118C307.341 99.4774 307.716 99.8471 308.187 100.04L363.894 122.74C364.365 122.931 364.894 122.93 365.365 122.736C365.835 122.542 366.209 122.171 366.404 121.705L389.345 66.585C389.539 66.1184 389.537 65.5948 389.341 65.1292C389.145 64.6636 388.771 64.2939 388.299 64.1014L332.593 41.4014Z" fill="#F2F2F2"/>
<path d="M344.598 124.136L288.892 101.436C288.185 101.147 287.623 100.592 287.329 99.8938C287.035 99.1954 287.033 98.4101 287.323 97.7102L310.265 42.5903C310.557 41.891 311.117 41.3349 311.823 41.0439C312.529 40.753 313.322 40.7509 314.03 41.0382L369.736 63.7382C370.443 64.0271 371.005 64.5815 371.299 65.2799C371.593 65.9784 371.595 66.7637 371.305 67.4636L348.363 122.583C348.071 123.283 347.511 123.839 346.805 124.13C346.099 124.421 345.306 124.423 344.598 124.136Z" fill="#12279E"/>
<path d="M451.896 199.407L277.665 128.409C277.315 128.266 276.996 128.057 276.728 127.792C276.459 127.528 276.246 127.214 276.101 126.868C275.955 126.522 275.88 126.151 275.879 125.776C275.878 125.402 275.952 125.03 276.096 124.684C276.24 124.337 276.452 124.022 276.72 123.757C276.987 123.491 277.304 123.28 277.654 123.136C278.003 122.992 278.378 122.918 278.757 122.917C279.136 122.916 279.511 122.989 279.861 123.132L454.092 194.129C454.799 194.418 455.362 194.972 455.656 195.671C455.95 196.369 455.952 197.155 455.661 197.855C455.369 198.555 454.809 199.111 454.103 199.402C453.397 199.693 452.603 199.695 451.896 199.407Z" fill="#CCCCCC"/>
<path d="M402.254 200.439L270.099 146.587C269.749 146.444 269.431 146.235 269.162 145.97C268.894 145.706 268.681 145.392 268.535 145.046C268.39 144.7 268.314 144.329 268.313 143.954C268.313 143.579 268.387 143.208 268.531 142.862C268.675 142.515 268.887 142.2 269.154 141.935C269.421 141.669 269.739 141.458 270.088 141.314C270.438 141.17 270.813 141.095 271.192 141.095C271.57 141.094 271.946 141.167 272.296 141.31L404.45 195.162C405.158 195.45 405.72 196.004 406.014 196.703C406.309 197.401 406.31 198.187 406.019 198.887C405.728 199.587 405.167 200.143 404.461 200.434C403.755 200.726 402.961 200.727 402.254 200.439Z" fill="#CCCCCC"/>
<path d="M479.125 132.318L402.085 100.924C401.734 100.782 401.416 100.572 401.148 100.308C400.879 100.043 400.666 99.7289 400.521 99.383C400.375 99.037 400.3 98.6661 400.299 98.2914C400.298 97.9166 400.372 97.5454 400.516 97.1988C400.66 96.8523 400.872 96.5373 401.139 96.2718C401.407 96.0062 401.724 95.7954 402.074 95.6513C402.423 95.5072 402.798 95.4326 403.177 95.4318C403.556 95.4311 403.931 95.5041 404.281 95.6468L481.322 127.04C482.029 127.329 482.592 127.883 482.886 128.582C483.18 129.28 483.182 130.066 482.89 130.766C482.599 131.466 482.039 132.022 481.333 132.313C480.627 132.604 479.833 132.606 479.125 132.318Z" fill="#CCCCCC"/>
<path d="M452.333 142.661L394.519 119.102C393.812 118.814 393.249 118.259 392.955 117.561C392.661 116.862 392.659 116.076 392.951 115.377C393.242 114.677 393.802 114.12 394.508 113.829C395.214 113.538 396.008 113.536 396.716 113.825L454.53 137.383C455.237 137.672 455.8 138.226 456.094 138.925C456.388 139.623 456.39 140.409 456.098 141.109C455.807 141.809 455.247 142.365 454.541 142.656C453.835 142.947 453.041 142.949 452.333 142.661Z" fill="#CCCCCC"/>
<path d="M436.764 235.762L262.533 164.765C262.183 164.622 261.865 164.413 261.596 164.148C261.328 163.884 261.115 163.57 260.969 163.224C260.824 162.878 260.748 162.507 260.748 162.132C260.747 161.757 260.821 161.386 260.965 161.039C261.109 160.693 261.321 160.378 261.588 160.112C261.855 159.847 262.173 159.636 262.523 159.492C262.872 159.348 263.247 159.273 263.626 159.272C264.004 159.272 264.38 159.345 264.73 159.487L438.961 230.485C439.668 230.773 440.231 231.328 440.525 232.026C440.819 232.725 440.82 233.511 440.529 234.21C440.238 234.91 439.678 235.467 438.971 235.758C438.265 236.049 437.471 236.051 436.764 235.762Z" fill="#CCCCCC"/>
<path d="M387.122 236.795L254.967 182.943C254.617 182.8 254.299 182.59 254.031 182.326C253.762 182.062 253.549 181.747 253.403 181.401C253.258 181.055 253.182 180.685 253.182 180.31C253.181 179.935 253.255 179.564 253.399 179.217C253.543 178.871 253.755 178.556 254.022 178.29C254.289 178.025 254.607 177.814 254.957 177.67C255.306 177.526 255.681 177.451 256.06 177.45C256.439 177.45 256.814 177.523 257.164 177.665L389.319 231.517C389.669 231.66 389.987 231.869 390.256 232.134C390.524 232.398 390.737 232.713 390.883 233.058C391.028 233.404 391.104 233.775 391.104 234.15C391.105 234.525 391.031 234.896 390.887 235.243C390.743 235.589 390.531 235.904 390.264 236.17C389.997 236.435 389.679 236.646 389.329 236.79C388.98 236.934 388.605 237.009 388.226 237.01C387.847 237.01 387.472 236.937 387.122 236.795Z" fill="#CCCCCC"/>
<path d="M421.632 272.118L247.402 201.121C246.694 200.832 246.132 200.278 245.838 199.579C245.543 198.881 245.542 198.095 245.833 197.395C246.124 196.695 246.685 196.139 247.391 195.848C248.097 195.557 248.891 195.555 249.598 195.843L423.829 266.841C424.536 267.129 425.099 267.683 425.393 268.382C425.687 269.081 425.689 269.866 425.397 270.566C425.106 271.266 424.546 271.823 423.84 272.114C423.134 272.405 422.34 272.406 421.632 272.118Z" fill="#CCCCCC"/>
<path d="M414.067 290.296L239.836 219.298C239.129 219.01 238.566 218.456 238.272 217.757C237.978 217.058 237.976 216.273 238.268 215.573C238.559 214.873 239.119 214.316 239.825 214.025C240.531 213.734 241.325 213.733 242.033 214.021L416.263 285.019C416.614 285.161 416.932 285.371 417.2 285.635C417.469 285.9 417.682 286.214 417.827 286.56C417.973 286.906 418.048 287.277 418.049 287.651C418.05 288.026 417.976 288.397 417.832 288.744C417.688 289.09 417.476 289.406 417.209 289.671C416.941 289.937 416.624 290.147 416.274 290.292C415.925 290.436 415.55 290.51 415.171 290.511C414.792 290.512 414.417 290.439 414.067 290.296Z" fill="#CCCCCC"/>
<path d="M329.069 288.946C332.556 289.128 336.052 289.023 339.521 288.63C342.645 288.269 345.899 287.771 348.638 286.146C349.822 285.478 350.83 284.542 351.58 283.416C352.33 282.289 352.801 281.003 352.955 279.663C353.075 278.388 352.783 277.108 352.12 276.008C351.456 274.908 350.457 274.046 349.265 273.545C348.056 273.042 346.732 272.871 345.433 273.051C344.134 273.231 342.908 273.755 341.885 274.569C340.793 275.507 339.929 276.678 339.357 277.993C338.786 279.308 338.522 280.734 338.585 282.164C338.729 288.038 343.426 293.839 348.641 296.282C354.515 299.034 362.537 296.695 364.041 289.918C364.354 288.509 362.414 288.019 361.603 288.925C360.495 290.133 359.896 291.714 359.927 293.344C359.958 294.975 360.617 296.532 361.769 297.698C362.921 298.864 364.48 299.551 366.127 299.618C367.774 299.685 369.384 299.128 370.63 298.059L368.446 297.17C369.081 299.801 370.404 302.22 372.284 304.184C374.163 306.148 376.532 307.588 379.153 308.359C380.446 308.742 381.787 308.944 383.137 308.959C384.777 308.964 386.462 309.779 388.031 310.284L399.336 313.929C400.999 314.465 402.054 311.967 400.377 311.426L390.139 308.126C388.433 307.576 386.73 307.011 385.019 306.476C383.796 306.093 382.457 306.3 381.181 306.075C378.793 305.628 376.582 304.518 374.807 302.875C373.032 301.233 371.766 299.124 371.155 296.796C371.118 296.565 371.021 296.347 370.874 296.163C370.727 295.979 370.535 295.835 370.316 295.746C370.096 295.656 369.858 295.624 369.622 295.652C369.387 295.681 369.163 295.768 368.972 295.907C368.256 296.58 367.301 296.947 366.314 296.927C365.327 296.907 364.388 296.502 363.701 295.8C363.014 295.098 362.636 294.156 362.647 293.179C362.659 292.202 363.061 291.269 363.764 290.584L361.326 289.59C360.355 293.962 354.966 295.602 351.082 294.338C346.738 292.924 343.004 288.811 341.709 284.502C341.362 283.466 341.235 282.371 341.336 281.285C341.436 280.199 341.762 279.145 342.292 278.189C342.765 277.317 343.503 276.614 344.401 276.179C345.299 275.744 346.312 275.598 347.298 275.763C348.179 275.886 348.977 276.343 349.523 277.037C350.07 277.731 350.323 278.609 350.228 279.484C350.083 280.468 349.696 281.402 349.1 282.204C348.505 283.005 347.719 283.65 346.813 284.08C344.368 285.378 341.441 285.702 338.725 285.997C335.629 286.33 332.511 286.418 329.401 286.259C327.655 286.172 327.305 288.858 329.069 288.946Z" fill="#6C63FF"/>
<path d="M515.973 212.799V427.799H127.376V173.908H188.187L244.259 212.799H515.973Z" fill="white"/>
<path d="M309.809 387.44H151.107V399.915H309.809V387.44Z" fill="#12279E"/>
<path d="M230.458 363.225H151.107V375.7H230.458V363.225Z" fill="#12279E"/>
<path d="M516.715 428.532H126.635V173.174H188.421L244.497 212.065H516.715V428.532ZM128.118 427.065H515.231V213.532H244.028L187.953 174.642H128.118V427.065Z" fill="#3F3D56"/>
<path d="M674.218 402.583L661.069 407.232L636.687 359.261L656.093 352.399L674.218 402.583Z" fill="#9F616A"/>
<path d="M639.73 429.001L639.538 428.47C637.979 424.139 638.221 419.373 640.209 415.218C642.197 411.063 645.77 407.858 650.143 406.306L676.038 397.148L682.128 414.008L639.73 429.001Z" fill="#2F2E41"/>
<path d="M588.715 415.45H574.751L568.109 362.158L588.717 362.159L588.715 415.45Z" fill="#9F616A"/>
<path d="M592.276 428.844L547.252 428.842V428.279C547.252 426.001 547.705 423.747 548.586 421.643C549.467 419.539 550.758 417.628 552.385 416.017C554.012 414.407 555.944 413.13 558.07 412.259C560.197 411.387 562.475 410.939 564.777 410.939H564.778L592.277 410.94L592.276 428.844Z" fill="#2F2E41"/>
<path d="M620.538 74.9832L614.465 63.1101C614.465 63.1101 591.842 68.7183 589.786 81.6918L620.538 74.9832Z" fill="#12279E"/>
<path d="M645.595 210.743L629.08 301.93L672.93 378.661L646.734 388.804L602.315 314.424L596.62 294.138L593.203 400.073L569.578 399.364L558.745 300.446L576.119 208.489L645.595 210.743Z" fill="#2F2E41"/>
<path d="M642.177 169.545L641.606 116.073C641.606 93.4111 626.532 76.7077 624.443 75.1625C623.459 72.0579 621.695 69.9119 619.201 68.7888C614.176 66.5354 608.031 69.2394 607.771 69.3611L589.336 76.1998L589.249 76.4501C589.053 77.0224 570.452 137.419 565.781 152.577C565.116 154.752 564.733 155.997 564.733 155.997C564.733 155.997 564.806 159.502 564.936 164.953C565.348 183.695 566.324 225.443 566.714 227.195C566.714 227.195 600.766 232.303 614.249 232.303C638.504 232.303 653.911 227.71 654.258 227.632L654.814 227.517L642.177 169.545Z" fill="#3F3D56"/>
<path d="M607.558 56.3496C619.637 49.8167 624.075 34.8325 617.473 22.8815C610.871 10.9305 595.727 6.53832 583.649 13.0713C571.571 19.6042 567.132 34.5884 573.734 46.5394C580.337 58.4904 595.48 62.8826 607.558 56.3496Z" fill="#9F616A"/>
<path opacity="0.2" d="M598.365 158.229L564.936 164.953C564.806 159.502 564.733 155.997 564.733 155.997C564.733 155.997 565.116 154.752 565.781 152.577L598.365 158.229Z" fill="black"/>
<path d="M499.368 151.18C500.556 152.187 501.951 152.925 503.458 153.34C504.964 153.756 506.544 153.839 508.086 153.586C509.628 153.332 511.096 152.746 512.385 151.87C513.674 150.994 514.753 149.85 515.547 148.517L552.811 155.924L545.398 137.809L511.147 133.552C508.796 132.382 506.092 132.105 503.548 132.776C501.004 133.446 498.797 135.017 497.345 137.189C495.893 139.362 495.297 141.987 495.67 144.565C496.043 147.144 497.359 149.497 499.368 151.18Z" fill="#9F616A"/>
<path d="M543.507 136.72L530.084 134.885L525.607 153.338L542.551 154.298L543.507 136.72Z" fill="#12279E"/>
<path d="M538.916 133.164L578.63 128.804L599.701 91.8154C601.878 87.9927 605.387 85.0848 609.572 83.6345C613.758 82.1843 618.334 82.2908 622.446 83.9344C626.558 85.5779 629.924 88.646 631.918 92.5658C633.911 96.4857 634.394 100.989 633.277 105.236L633.156 105.695L597.737 156.828L531.511 160.06L538.916 133.164Z" fill="#3F3D56"/>
<path d="M616.833 56.1221L596.146 56.8568C594.885 56.9016 591.463 43.4363 591.015 40.6429C590.661 38.8244 589.65 37.1955 588.171 36.0605C586.692 34.9256 584.845 34.3622 582.977 34.4756C581.429 34.6203 577.524 31.7577 573.494 28.3681C565.845 21.9328 566.242 9.84652 574.646 4.40873C574.876 4.26011 575.101 4.1244 575.322 4.00162C580.624 1.06564 586.825 0.0797043 592.9 0.00452033C598.407 -0.0636339 604.07 0.622195 608.921 3.20129C617.619 7.82505 622.248 17.9293 622.655 27.6906C623.061 37.4519 619.899 46.9966 616.31 56.098" fill="#2F2E41"/>
<path d="M705.258 430H0.741597C0.544913 430 0.356284 429.923 0.217208 429.785C0.0781317 429.647 0 429.461 0 429.266C0 429.072 0.0781317 428.885 0.217208 428.747C0.356284 428.61 0.544913 428.532 0.741597 428.532H705.258C705.455 428.532 705.644 428.61 705.783 428.747C705.922 428.885 706 429.072 706 429.266C706 429.461 705.922 429.647 705.783 429.785C705.644 429.923 705.455 430 705.258 430Z" fill="#CBCBCB"/>
</g>
<defs>
<clipPath id="clip0_30_297">
<rect width="706" height="430" fill="white"/>
</clipPath>
</defs>
</svg>
