<svg width="989" height="508" viewBox="0 0 989 508" fill="none" xmlns="http://www.w3.org/2000/svg">
<g clip-path="url(#clip0_21_239)">
<path d="M198.527 360.262C195.613 360.266 192.819 361.532 190.758 363.782C188.697 366.033 187.538 369.084 187.535 372.266V400.351C187.538 403.534 188.697 406.585 190.758 408.835C192.819 411.086 195.613 412.352 198.527 412.355H212.469C215.384 412.352 218.178 411.086 220.239 408.835C222.299 406.585 223.458 403.534 223.462 400.351V372.266C223.458 369.084 222.299 366.033 220.239 363.782C218.178 361.532 215.384 360.266 212.469 360.262H198.527Z" fill="#3F3D56"/>
<path d="M456.259 413.29H442.316C439.175 413.286 436.164 411.921 433.943 409.496C431.722 407.07 430.472 403.781 430.469 400.351V372.267C430.472 368.836 431.722 365.547 433.943 363.122C436.164 360.696 439.175 359.332 442.316 359.328H456.259C459.4 359.332 462.411 360.696 464.632 363.122C466.853 365.547 468.103 368.836 468.106 372.267V400.351C468.103 403.781 466.853 407.07 464.632 409.496C462.411 411.921 459.4 413.286 456.259 413.29Z" fill="#3F3D56"/>
<path d="M447.008 390.803H206.923C195.996 390.803 187.107 383.769 187.107 375.122V324.705L199.024 310.999H457.225L466.823 324.733V375.122C466.823 383.769 457.934 390.803 447.008 390.803Z" fill="#CCCCCC"/>
<path d="M456.104 336.222H200.393L197.794 292.707L199.448 288.254L209.06 262.423H445.706L458.703 291.756L456.104 336.222Z" fill="#CCCCCC"/>
<path d="M458.269 291.85L456.361 324.545H400.102V300.256L456.669 288.243L458.269 291.85Z" fill="white"/>
<path d="M255.54 300.256V324.545H200.126L198.227 292.783L199.844 288.43L255.54 300.256Z" fill="white"/>
<path d="M444.28 269.896H210.483L235.42 179.123C236.437 175.374 238.531 172.082 241.393 169.733C244.256 167.384 247.734 166.103 251.314 166.08L406.15 164.469C409.891 164.429 413.537 165.758 416.506 168.244C419.476 170.729 421.598 174.229 422.535 178.184L444.28 269.896Z" fill="#CCCCCC"/>
<path d="M426.282 261.313L228.444 258.751C228.193 258.748 227.948 258.681 227.726 258.555C227.504 258.429 227.312 258.248 227.166 258.026C227.019 257.804 226.923 257.548 226.884 257.279C226.844 257.009 226.864 256.733 226.94 256.473L245.906 191.851C246.009 191.499 246.213 191.191 246.486 190.973C246.76 190.755 247.09 190.638 247.428 190.638H406.554C406.892 190.638 407.222 190.755 407.496 190.973C407.769 191.191 407.973 191.498 408.076 191.85L427.823 259.034C427.901 259.297 427.919 259.577 427.878 259.85C427.837 260.123 427.737 260.382 427.587 260.604C427.436 260.827 427.24 261.007 427.013 261.131C426.786 261.254 426.535 261.316 426.282 261.313Z" fill="white"/>
<path d="M354.044 175.546H300.719C300.27 175.546 299.862 175.063 299.656 174.285C299.449 173.488 299.479 172.641 299.741 171.864L304.138 159.72C304.362 159.101 304.728 158.731 305.117 158.731H349.647C350.035 158.731 350.401 159.101 350.626 159.72L355.023 171.864C355.284 172.641 355.314 173.488 355.108 174.285C354.901 175.063 354.493 175.546 354.044 175.546Z" fill="#12279E"/>
<path d="M210.631 268.028H175.559V259.61C175.562 256.888 176.553 254.279 178.315 252.355C180.077 250.43 182.467 249.348 184.959 249.345H210.631V268.028Z" fill="#CCCCCC"/>
<path d="M479.227 268.028H444.155V249.345H469.827C472.319 249.348 474.708 250.43 476.47 252.355C478.233 254.279 479.224 256.888 479.227 259.61V268.028Z" fill="#CCCCCC"/>
<path d="M171.456 399.26L0.000976562 466.522L0.728815 468.735L172.184 401.472L171.456 399.26Z" fill="#3F3D56"/>
<path d="M482.249 399.264L481.521 401.477L652.981 468.723L653.709 466.51L482.249 399.264Z" fill="#3F3D56"/>
<path d="M336.92 448.035H326.657V433.559H336.92V448.035ZM336.92 419.082H326.657V404.606H336.92V419.082Z" fill="#E6E6E6"/>
<path d="M336.92 508H326.657V493.524H336.92V508ZM336.92 479.047H326.657V464.571H336.92V479.047Z" fill="#E6E6E6"/>
<path d="M787.854 457.994H776.551L771.172 410.383H787.854V457.994Z" fill="#FFB8B8"/>
<path d="M790.737 469.96H754.291V469.456C754.296 465.349 755.792 461.411 758.451 458.507C761.111 455.602 764.716 453.969 768.477 453.964H790.737L790.737 469.96Z" fill="#2F2E41"/>
<path d="M933.611 434.604L923.922 440.962L896.858 403.175L911.157 393.792L933.611 434.604Z" fill="#FFB8B8"/>
<path d="M910.485 463.738L910.248 463.306C908.314 459.783 907.74 455.566 908.65 451.581C909.56 447.596 911.88 444.167 915.101 442.048L934.182 429.529L941.725 443.239L910.485 463.738Z" fill="#2F2E41"/>
<path d="M790.793 448.169L790.598 448.168C785.1 448.149 779.606 447.804 774.142 447.134C772.059 446.909 769.8 446.665 767.078 446.421L766.984 446.402C765.127 445.799 765.076 426.778 765.863 361.668C766.266 328.32 766.723 290.522 766.179 266.451L766.174 266.214L766.337 266.058C786.5 246.907 812.394 239.728 839.248 245.844L839.448 245.889L839.551 246.08C850.66 266.607 867.433 296.174 883.653 324.769C920.889 390.408 931.538 409.713 930.371 411.169L930.23 411.288C927.688 412.676 925.779 413.745 924.156 414.654C918.721 417.697 916.471 418.957 904.385 424.392L904.086 424.526L903.869 424.266C866.088 379.054 834.647 328.55 815.199 281.863C812.927 297.802 810.169 318.614 807.254 340.605C798.874 403.842 793.21 445.482 790.929 448.017L790.793 448.169Z" fill="#2F2E41"/>
<path d="M849.474 64.5542C853.279 47.3972 856.503 28.0459 849.327 12.244C844.348 1.27992 825.929 -2.41231 815.37 1.53763C804.812 5.48756 797.178 16.204 793.82 27.8883C790.463 39.5726 790.853 52.1634 792.316 64.31C811.735 63.9027 831.154 63.4953 849.474 64.5542Z" fill="#2F2E41"/>
<path d="M816.705 64.5496C829.211 64.5496 839.349 53.478 839.349 39.8204C839.349 26.1629 829.211 15.0913 816.705 15.0913C804.199 15.0913 794.06 26.1629 794.06 39.8204C794.06 53.478 804.199 64.5496 816.705 64.5496Z" fill="#FFB8B8"/>
<path d="M844.387 34.7264C844.459 30.5644 843.764 26.429 842.344 22.566C840.923 18.7031 838.806 15.1913 836.119 12.2395C833.431 9.28757 830.228 6.95579 826.698 5.38267C823.169 3.80954 819.387 3.02717 815.575 3.08204C811.764 3.13692 808.001 4.02792 804.511 5.70209C801.021 7.37627 797.875 9.79946 795.26 12.8277C792.644 15.8559 790.613 19.4274 789.286 23.3299C787.96 27.2324 787.365 31.3863 787.537 35.5448C806.919 35.5897 826.301 35.6347 844.387 34.7264Z" fill="#2F2E41"/>
<path d="M800.973 271.315C823.501 271.205 845.881 275.297 867.148 283.414C867.888 244.434 855.599 205.38 833.38 176.165L833.214 175.947L833.299 175.679C839.234 156.951 845.368 137.594 850.849 118.333L850.766 118.009C846.922 103.084 838.671 88.0021 825.541 71.9004C824.117 70.289 822.185 69.3294 820.136 69.2161C818.088 69.1028 816.077 69.8443 814.511 71.2903C791.173 94.6542 778.484 129.661 781.395 162.65L781.403 162.746L781.378 162.84C771.097 200.878 767.365 220.415 764.072 237.652C761.67 250.226 759.59 261.114 755.415 276.671C770.382 273.115 785.655 271.319 800.973 271.315Z" fill="#3F3D56"/>
<path opacity="0.1" d="M834.141 151.072L800.695 230.59L781.589 209.469L834.141 151.072Z" fill="black"/>
<path d="M759.069 195.24L761.401 200.188C761.423 200.234 761.427 200.287 761.412 200.336C761.398 200.385 761.367 200.425 761.325 200.449L761.212 200.512L773.36 226.289C773.696 227.002 773.759 227.832 773.535 228.596C773.311 229.36 772.818 229.996 772.165 230.363L757.416 238.652C757.093 238.834 756.74 238.944 756.377 238.977C756.015 239.01 755.65 238.964 755.304 238.843C754.957 238.722 754.636 238.527 754.359 238.27C754.081 238.014 753.853 237.7 753.687 237.346L741.965 212.474L741.883 212.519C741.854 212.536 741.82 212.539 741.788 212.528C741.756 212.517 741.73 212.493 741.715 212.461L740.387 209.645C740.38 209.629 740.375 209.611 740.374 209.593C740.373 209.575 740.374 209.557 740.379 209.54C740.385 209.523 740.393 209.507 740.403 209.493C740.414 209.479 740.427 209.468 740.442 209.46L740.523 209.414L740.023 208.353L739.941 208.4C739.91 208.417 739.874 208.42 739.841 208.408C739.808 208.397 739.78 208.371 739.764 208.337L738.455 205.559C738.439 205.526 738.436 205.486 738.447 205.45C738.457 205.414 738.481 205.384 738.512 205.367L738.594 205.32L737.911 203.872L737.828 203.919C737.8 203.935 737.769 203.938 737.739 203.927C737.71 203.917 737.685 203.895 737.671 203.865L736.957 202.349C736.943 202.319 736.94 202.284 736.949 202.251C736.959 202.219 736.979 202.192 737.007 202.177L737.09 202.13L735.644 199.061C735.308 198.347 735.245 197.518 735.469 196.754C735.693 195.99 736.186 195.355 736.839 194.988L751.587 186.699C752.24 186.332 753 186.263 753.7 186.507C754.399 186.752 754.981 187.29 755.317 188.003L758.718 195.219L758.83 195.156C758.872 195.132 758.921 195.128 758.966 195.144C759.01 195.159 759.048 195.194 759.069 195.24Z" fill="#3F3D56"/>
<path d="M754.389 189.198L772.286 227.175C772.499 227.628 772.539 228.154 772.396 228.638C772.254 229.123 771.941 229.526 771.527 229.759L757.409 237.694C756.996 237.927 756.515 237.971 756.071 237.817C755.628 237.663 755.259 237.323 755.045 236.871L755.043 236.866L737.146 198.889C737.04 198.665 736.976 198.421 736.957 198.17C736.938 197.918 736.964 197.666 737.035 197.426C737.105 197.186 737.218 196.963 737.367 196.771C737.516 196.579 737.699 196.42 737.904 196.305L740.017 195.117L740.156 195.413C740.243 195.598 740.363 195.762 740.508 195.896C740.653 196.03 740.821 196.132 741.002 196.195C741.182 196.258 741.373 196.282 741.562 196.265C741.752 196.248 741.936 196.19 742.105 196.095L749.285 192.06C749.627 191.868 749.884 191.536 750.001 191.137C750.118 190.738 750.085 190.304 749.91 189.932L749.77 189.635L752.022 188.37C752.436 188.137 752.918 188.093 753.362 188.248C753.806 188.403 754.175 188.745 754.388 189.197L754.389 189.198Z" fill="#12279E"/>
<path d="M759.576 235.594C760.928 235.491 762.243 235.066 763.428 234.348C764.613 233.63 765.64 232.638 766.436 231.439C767.232 230.241 767.778 228.867 768.035 227.414C768.292 225.961 768.254 224.464 767.924 223.028L795.482 203.31L779.765 195.895L756.005 215.756C753.834 216.522 751.995 218.131 750.837 220.278C749.679 222.425 749.282 224.962 749.722 227.407C750.162 229.852 751.408 232.036 753.225 233.545C755.041 235.054 757.3 235.783 759.576 235.594Z" fill="#FFB8B8"/>
<path d="M786.093 221.389L785.745 221.121C779.187 215.849 771.905 210.398 764.864 205.125L764.441 204.809L764.774 204.383C779.803 185.18 794.849 165.122 809.401 145.719C809.39 145.688 809.381 145.666 809.373 145.649L809.51 145.573L809.568 145.496L809.599 145.524L809.687 145.475L809.291 145.509L804.805 107.095C800.754 101.06 799.978 89.0763 805.288 80.7113C810.787 72.046 822.422 69.1459 830.187 74.5026C832.221 75.994 833.922 77.9659 835.164 80.2724C836.406 82.5788 837.157 85.1608 837.361 87.8271C837.649 90.2025 837.448 92.6182 836.773 94.898C836.097 97.1777 834.963 99.2638 833.455 101.004C835.362 121.333 835.435 139.504 835.505 157.081L835.506 157.256L835.407 157.401C819.893 178.925 802.852 200.335 786.372 221.039L786.093 221.389Z" fill="#3F3D56"/>
<path d="M327.083 116.522C355.203 116.522 377.999 91.6276 377.999 60.9189C377.999 30.2102 355.203 5.31592 327.083 5.31592C298.964 5.31592 276.168 30.2102 276.168 60.9189C276.168 91.6276 298.964 116.522 327.083 116.522Z" fill="#12279E"/>
<path d="M322.231 84.3898L306.992 62.9916L315.854 55.4642L323.07 65.596L347.446 37.4946L355.597 45.9286L322.231 84.3898Z" fill="white"/>
<path d="M987.923 471.491H730.602C730.316 471.491 730.042 471.367 729.84 471.147C729.639 470.926 729.525 470.627 729.525 470.315C729.525 470.003 729.639 469.704 729.84 469.484C730.042 469.263 730.316 469.139 730.602 469.139H987.923C988.209 469.139 988.483 469.263 988.685 469.484C988.887 469.704 989 470.003 989 470.315C989 470.627 988.887 470.926 988.685 471.147C988.483 471.367 988.209 471.491 987.923 471.491Z" fill="#3F3D56"/>
</g>
<defs>
<clipPath id="clip0_21_239">
<rect width="989" height="508" fill="white"/>
</clipPath>
</defs>
</svg>
