<svg width="167" height="150" viewBox="0 0 167 150" fill="none" xmlns="http://www.w3.org/2000/svg">
<g clip-path="url(#clip0_30_288)">
<path d="M165.535 57.363C165.475 57.3631 165.417 57.3447 165.368 57.3105L84.3407 0.847829C84.0941 0.676802 83.8011 0.585403 83.5011 0.585915C83.2011 0.586427 82.9084 0.678825 82.6624 0.850692L2.21912 57.3099C2.1555 57.3546 2.07675 57.3721 2.0002 57.3587C1.92365 57.3452 1.85557 57.3019 1.81095 57.2382C1.76632 57.1746 1.74879 57.0958 1.76222 57.0192C1.77566 56.9426 1.81895 56.8745 1.88258 56.8298L82.3259 0.370593C82.6703 0.130016 83.0801 0.000693494 83.5002 2.78133e-06C83.9202 -0.000687931 84.3304 0.127285 84.6756 0.366728L165.702 56.8292C165.754 56.8649 165.792 56.916 165.812 56.9751C165.832 57.0342 165.833 57.0982 165.815 57.1577C165.796 57.2173 165.759 57.2693 165.708 57.3062C165.658 57.3432 165.597 57.3631 165.535 57.363Z" fill="#3F3D56"/>
<path d="M6.81592 59.3645L83.5808 2.43876L160.928 63.415L87.5361 106.948L47.6905 97.8607L6.81592 59.3645Z" fill="#E6E6E6"/>
<path d="M51.0537 133.837H13.13C12.8971 133.838 12.6665 133.792 12.4513 133.703C12.2361 133.614 12.0405 133.483 11.8757 133.319C11.7109 133.154 11.5802 132.959 11.491 132.743C11.4019 132.528 11.356 132.297 11.356 132.064C11.356 131.831 11.4019 131.601 11.491 131.385C11.5802 131.17 11.7109 130.975 11.8757 130.81C12.0405 130.645 12.2361 130.515 12.4513 130.426C12.6665 130.337 12.8971 130.291 13.13 130.292H51.0537C51.2866 130.291 51.5173 130.337 51.7325 130.426C51.9477 130.515 52.1433 130.645 52.3081 130.81C52.4728 130.975 52.6035 131.17 52.6927 131.385C52.7819 131.601 52.8278 131.831 52.8278 132.064C52.8278 132.297 52.7819 132.528 52.6927 132.743C52.6035 132.959 52.4728 133.154 52.3081 133.319C52.1433 133.483 51.9477 133.614 51.7325 133.703C51.5173 133.792 51.2866 133.838 51.0537 133.837Z" fill="#12279E"/>
<path d="M26.7362 126.215H13.13C12.8971 126.216 12.6665 126.17 12.4513 126.081C12.2361 125.992 12.0405 125.861 11.8757 125.697C11.7109 125.532 11.5802 125.337 11.491 125.121C11.4019 124.906 11.356 124.675 11.356 124.442C11.356 124.209 11.4019 123.979 11.491 123.763C11.5802 123.548 11.7109 123.353 11.8757 123.188C12.0405 123.023 12.2361 122.893 12.4513 122.804C12.6665 122.715 12.8971 122.669 13.13 122.67H26.7362C26.9691 122.669 27.1997 122.715 27.4149 122.804C27.6302 122.893 27.8257 123.023 27.9905 123.188C28.1553 123.353 28.286 123.548 28.3752 123.763C28.4644 123.979 28.5103 124.209 28.5103 124.442C28.5103 124.675 28.4644 124.906 28.3752 125.121C28.286 125.337 28.1553 125.532 27.9905 125.697C27.8257 125.861 27.6302 125.992 27.4149 126.081C27.1997 126.17 26.9691 126.216 26.7362 126.215Z" fill="#12279E"/>
<path d="M84.6604 91.0714C84.3722 91.0717 84.0867 91.0157 83.8198 90.9066L36.4766 71.2509V9.72531C36.4772 9.18126 36.6935 8.65967 37.0779 8.27497C37.4624 7.89026 37.9837 7.67386 38.5274 7.67323H129.352C129.896 7.67386 130.417 7.89026 130.801 8.27497C131.186 8.65967 131.402 9.18126 131.403 9.72531V71.2938L131.314 71.3319L85.5265 90.897C85.2523 91.0123 84.9579 91.0716 84.6604 91.0714Z" fill="white"/>
<path d="M84.6604 91.2178C84.3531 91.2181 84.0486 91.1585 83.764 91.0423L36.3301 71.3488V9.7253C36.3307 9.14239 36.5625 8.58353 36.9744 8.17134C37.3863 7.75916 37.9449 7.5273 38.5274 7.52664H129.352C129.935 7.5273 130.493 7.75916 130.905 8.17134C131.317 8.58353 131.549 9.14239 131.549 9.7253V71.3906L85.584 91.0317C85.2917 91.1548 84.9776 91.2181 84.6604 91.2178ZM36.916 70.9572L83.9875 90.5002C84.4265 90.6785 84.9182 90.6755 85.3551 90.4921L130.963 71.0036V9.7253C130.963 9.29784 130.793 8.88802 130.491 8.58576C130.189 8.28349 129.779 8.11346 129.352 8.11295H38.5275C38.1002 8.11346 37.6907 8.28349 37.3886 8.58576C37.0865 8.88802 36.9166 9.29784 36.9161 9.7253L36.916 70.9572Z" fill="#3F3D56"/>
<path d="M164.949 56.7767H164.89L131.256 71.1472L85.2374 90.8091C85.0576 90.8848 84.8647 90.9242 84.6696 90.9253C84.4745 90.9263 84.2811 90.8888 84.1006 90.815L36.6228 71.1061L2.16218 56.8002L2.10953 56.7767H2.05088C1.50714 56.7773 0.985836 56.9937 0.601353 57.3784C0.216869 57.7631 0.000603324 58.2848 0 58.8288V147.948C0.000604098 148.492 0.216869 149.014 0.601353 149.398C0.985836 149.783 1.50714 149.999 2.05088 150H164.949C165.493 149.999 166.014 149.783 166.399 149.398C166.783 149.014 166.999 148.492 167 147.948V58.8288C166.999 58.2848 166.783 57.7631 166.399 57.3784C166.014 56.9937 165.493 56.7773 164.949 56.7767ZM166.414 147.948C166.414 148.337 166.26 148.709 165.985 148.984C165.71 149.259 165.338 149.414 164.949 149.414H2.05088C1.66241 149.414 1.28989 149.259 1.0152 148.984C0.74051 148.709 0.58612 148.337 0.585965 147.948V58.8288C0.586496 58.4498 0.733441 58.0856 0.996076 57.8124C1.25871 57.5393 1.61671 57.3782 1.99523 57.363L36.6228 71.7394L83.8751 91.3573C84.3866 91.5655 84.9597 91.5624 85.4689 91.3485L131.256 71.7833L165.008 57.363C165.386 57.3794 165.743 57.5408 166.005 57.8138C166.267 58.0868 166.413 58.4504 166.414 58.8288V147.948Z" fill="#3F3D56"/>
<path d="M84.187 73.625C82.4392 73.6283 80.7378 73.0627 79.3393 72.0138L79.2527 71.9486L60.9966 57.9629C60.1512 57.3148 59.4416 56.5063 58.9083 55.5837C58.3751 54.6611 58.0288 53.6425 57.889 52.586C57.7492 51.5294 57.8188 50.4557 58.0937 49.4261C58.3687 48.3965 58.8436 47.4311 59.4914 46.5851C60.1392 45.7391 60.9472 45.0291 61.8692 44.4956C62.7913 43.9621 63.8093 43.6155 64.8652 43.4756C65.9211 43.3358 66.9942 43.4054 68.0233 43.6805C69.0523 43.9556 70.0171 44.4308 70.8625 45.079L82.6874 54.1515L110.631 17.6869C111.28 16.8412 112.088 16.1314 113.01 15.5982C113.932 15.065 114.95 14.7188 116.006 14.5793C117.062 14.4398 118.135 14.5098 119.164 14.7853C120.193 15.0608 121.158 15.5364 122.003 16.1849L121.829 16.421L122.008 16.1884C123.713 17.4995 124.828 19.4339 125.11 21.567C125.391 23.7001 124.815 25.8578 123.509 27.5667L90.6398 70.4578C89.8796 71.4462 88.902 72.246 87.783 72.7953C86.6639 73.3445 85.4334 73.6284 84.187 73.625Z" fill="#12279E"/>
</g>
<defs>
<clipPath id="clip0_30_288">
<rect width="167" height="150" fill="white"/>
</clipPath>
</defs>
</svg>
